<svg xmlns="http://www.w3.org/2000/svg" xmlns:xlink="http://www.w3.org/1999/xlink" width="500" zoomAndPan="magnify" viewBox="0 0 375 374.999991" height="500" preserveAspectRatio="xMidYMid meet" version="1.0"><defs><clipPath id="c88c55e6d3"><path d="M 68 46.210938 L 206 46.210938 L 206 202 L 68 202 Z M 68 46.210938 " clip-rule="nonzero"/></clipPath><clipPath id="6c7c0a0193"><path d="M 69 46.210938 L 205 46.210938 L 205 127 L 69 127 Z M 69 46.210938 " clip-rule="nonzero"/></clipPath><clipPath id="a808d433b6"><path d="M 146 294 L 240 294 L 240 326.753906 L 146 326.753906 Z M 146 294 " clip-rule="nonzero"/></clipPath><clipPath id="eafdd1f05a"><path d="M 34 294 L 127 294 L 127 326.753906 L 34 326.753906 Z M 34 294 " clip-rule="nonzero"/></clipPath><clipPath id="85cf2e71e0"><path d="M 43 23 L 228 23 L 228 210 L 43 210 Z M 43 23 " clip-rule="nonzero"/></clipPath><clipPath id="feb92657f4"><path d="M 116.789062 0 L 250.6875 91.441406 L 154.246094 232.664062 L 20.347656 141.222656 Z M 116.789062 0 " clip-rule="nonzero"/></clipPath><clipPath id="f039858aa9"><path d="M 166.339844 33.839844 L 201.140625 57.605469 C 214.28125 66.578125 223.320312 80.40625 226.265625 96.042969 C 229.210938 111.683594 225.824219 127.851562 216.851562 140.992188 L 188.140625 183.03125 C 179.167969 196.171875 165.339844 205.210938 149.703125 208.15625 C 134.066406 211.101562 117.898438 207.714844 104.757812 198.742188 L 69.953125 174.976562 C 56.8125 166 47.777344 152.175781 44.828125 136.535156 C 41.882812 120.898438 45.269531 104.730469 54.242188 91.589844 L 82.953125 49.550781 C 91.925781 36.410156 105.753906 27.371094 121.390625 24.425781 C 137.03125 21.476562 153.199219 24.863281 166.339844 33.839844 Z M 166.339844 33.839844 " clip-rule="nonzero"/></clipPath><clipPath id="e9967f0f7f"><path d="M 0 0 L 185 0 L 185 187 L 0 187 Z M 0 0 " clip-rule="nonzero"/></clipPath><clipPath id="051a62beb6"><path d="M 73.789062 -23 L 207.6875 68.441406 L 111.246094 209.664062 L -22.652344 118.222656 Z M 73.789062 -23 " clip-rule="nonzero"/></clipPath><clipPath id="6a334e6cc9"><path d="M 123.339844 10.839844 L 158.140625 34.605469 C 171.28125 43.578125 180.320312 57.40625 183.265625 73.042969 C 186.210938 88.683594 182.824219 104.851562 173.851562 117.992188 L 145.140625 160.03125 C 136.167969 173.171875 122.339844 182.210938 106.703125 185.15625 C 91.066406 188.101562 74.898438 184.714844 61.757812 175.742188 L 26.953125 151.976562 C 13.8125 143 4.777344 129.175781 1.828125 113.535156 C -1.117188 97.898438 2.269531 81.730469 11.242188 68.589844 L 39.953125 26.550781 C 48.925781 13.410156 62.753906 4.371094 78.390625 1.425781 C 94.03125 -1.523438 110.199219 1.863281 123.339844 10.839844 Z M 123.339844 10.839844 " clip-rule="nonzero"/></clipPath><clipPath id="a041b11e9b"><rect x="0" width="185" y="0" height="187"/></clipPath><clipPath id="01c2845453"><path d="M 61.695312 38.628906 L 209.488281 38.628906 L 209.488281 206.691406 L 61.695312 206.691406 Z M 61.695312 38.628906 " clip-rule="nonzero"/></clipPath><clipPath id="9a034461d4"><rect x="0" width="273" y="0" height="328"/></clipPath></defs><rect x="-37.5" width="450" fill="#ffffff" y="-37.499999" height="449.999989" fill-opacity="1"/><rect x="-37.5" width="450" fill="#ffd05b" y="-37.499999" height="449.999989" fill-opacity="1"/><g transform="matrix(1, 0, 0, 1, 51, 0)"><g clip-path="url(#9a034461d4)"><path fill="#f59880" d="M 203.28125 89.105469 L 203.28125 158.679688 C 203.289062 159.1875 203.226562 159.683594 203.097656 160.175781 C 202.972656 160.667969 202.78125 161.132812 202.527344 161.574219 C 202.269531 162.011719 201.964844 162.410156 201.601562 162.765625 C 201.238281 163.125 200.835938 163.425781 200.394531 163.671875 L 140.070312 198.460938 C 139.632812 198.722656 139.167969 198.917969 138.679688 199.054688 C 138.1875 199.1875 137.691406 199.253906 137.183594 199.253906 C 136.671875 199.253906 136.175781 199.1875 135.683594 199.054688 C 135.195312 198.917969 134.730469 198.722656 134.292969 198.460938 L 73.972656 163.671875 C 73.527344 163.425781 73.125 163.125 72.765625 162.765625 C 72.402344 162.410156 72.09375 162.011719 71.839844 161.574219 C 71.585938 161.132812 71.394531 160.667969 71.265625 160.175781 C 71.136719 159.6875 71.074219 159.1875 71.082031 158.679688 L 71.082031 89.105469 C 71.074219 88.597656 71.136719 88.097656 71.265625 87.605469 C 71.394531 87.113281 71.585938 86.648438 71.839844 86.207031 C 72.09375 85.769531 72.402344 85.371094 72.761719 85.011719 C 73.125 84.65625 73.527344 84.355469 73.972656 84.105469 L 134.292969 49.320312 C 134.730469 49.0625 135.195312 48.863281 135.683594 48.730469 C 136.175781 48.59375 136.671875 48.527344 137.183594 48.527344 C 137.691406 48.527344 138.1875 48.59375 138.679688 48.730469 C 139.167969 48.863281 139.632812 49.0625 140.070312 49.320312 L 200.394531 84.105469 C 200.835938 84.355469 201.238281 84.65625 201.601562 85.015625 C 201.964844 85.371094 202.269531 85.769531 202.523438 86.207031 C 202.777344 86.648438 202.96875 87.113281 203.097656 87.605469 C 203.226562 88.097656 203.289062 88.597656 203.28125 89.105469 Z M 203.28125 89.105469 " fill-opacity="1" fill-rule="evenodd"/><path fill="#937cb8" d="M 202.523438 86.207031 L 137.183594 123.890625 L 71.839844 86.207031 C 72.363281 85.316406 73.074219 84.617188 73.972656 84.105469 L 134.292969 49.320312 C 134.730469 49.0625 135.195312 48.863281 135.683594 48.730469 C 136.175781 48.59375 136.671875 48.527344 137.183594 48.527344 C 137.691406 48.527344 138.1875 48.59375 138.679688 48.730469 C 139.167969 48.863281 139.632812 49.0625 140.070312 49.320312 L 200.394531 84.105469 C 201.292969 84.617188 202.003906 85.316406 202.523438 86.207031 Z M 202.523438 86.207031 " fill-opacity="1" fill-rule="evenodd"/><path fill="#e96f7b" d="M 203.28125 89.105469 L 203.28125 158.679688 C 203.289062 159.1875 203.226562 159.683594 203.097656 160.175781 C 202.972656 160.667969 202.78125 161.132812 202.527344 161.574219 C 202.269531 162.011719 201.964844 162.410156 201.601562 162.765625 C 201.238281 163.125 200.835938 163.425781 200.394531 163.671875 L 140.070312 198.460938 C 139.179688 198.984375 138.214844 199.25 137.183594 199.253906 L 137.183594 123.890625 L 202.523438 86.207031 C 203.035156 87.105469 203.289062 88.070312 203.28125 89.105469 Z M 203.28125 89.105469 " fill-opacity="1" fill-rule="evenodd"/><path fill="#fbd96f" d="M 94.550781 99.304688 L 113.71875 110.359375 L 179.816406 72.238281 L 160.648438 61.1875 Z M 94.550781 99.304688 " fill-opacity="1" fill-rule="evenodd"/><path fill="#eb9e65" d="M 113.714844 110.359375 L 113.714844 135.382812 C 113.714844 135.632812 113.683594 135.882812 113.617188 136.128906 C 113.550781 136.371094 113.457031 136.605469 113.328125 136.824219 C 113.203125 137.042969 113.050781 137.242188 112.871094 137.421875 C 112.691406 137.601562 112.492188 137.753906 112.273438 137.878906 C 112.054688 138.007812 111.820312 138.101562 111.578125 138.167969 C 111.332031 138.234375 111.082031 138.265625 110.828125 138.265625 C 110.574219 138.265625 110.328125 138.234375 110.082031 138.167969 C 109.835938 138.105469 109.605469 138.007812 109.382812 137.882812 L 97.4375 130.988281 C 96.996094 130.742188 96.589844 130.4375 96.230469 130.082031 C 95.867188 129.726562 95.558594 129.328125 95.304688 128.886719 C 95.050781 128.449219 94.859375 127.984375 94.730469 127.492188 C 94.601562 127 94.542969 126.5 94.550781 125.992188 L 94.550781 99.304688 Z M 113.714844 110.359375 " fill-opacity="1" fill-rule="evenodd"/><path fill="#f1cbbc" d="M 269.9375 216.230469 L 267.21875 120.382812 C 267.09375 116.03125 263.988281 111.925781 259.816406 109.664062 C 250.90625 104.832031 237.140625 108.417969 237.246094 135.984375 L 237.445312 188.054688 C 237.46875 195.324219 235.023438 201.527344 230.433594 207.167969 L 226.429688 212.09375 C 231.539062 205.742188 231.375 199.054688 226.425781 194.109375 C 221.476562 189.164062 213.625 189.425781 208.425781 194.109375 C 196.648438 208.015625 181.355469 219.488281 172.941406 227.0625 C 165.394531 233.855469 164.050781 243.394531 164.066406 253.542969 L 164.113281 283.742188 L 164.132812 296.257812 L 217.363281 296.714844 L 217.363281 282.289062 L 260.765625 238.9375 C 267.007812 232.703125 270.1875 225.046875 269.9375 216.230469 Z M 269.9375 216.230469 " fill-opacity="1" fill-rule="evenodd"/><path fill="#f6dccd" d="M 262.484375 203.652344 L 259.816406 109.667969 C 250.90625 104.835938 237.140625 108.417969 237.246094 135.984375 L 237.445312 188.054688 C 237.46875 195.324219 235.023438 201.527344 230.433594 207.167969 L 226.429688 212.09375 C 231.539062 205.742188 231.375 199.054688 226.425781 194.109375 C 221.476562 189.167969 213.625 189.429688 208.425781 194.109375 C 196.648438 208.015625 181.355469 219.492188 172.941406 227.0625 C 165.394531 233.859375 164.050781 243.394531 164.066406 253.546875 L 164.113281 283.742188 L 199.667969 284.050781 C 200.339844 284.054688 201.003906 283.996094 201.664062 283.871094 C 202.320312 283.742188 202.960938 283.554688 203.582031 283.300781 C 204.203125 283.050781 204.792969 282.738281 205.351562 282.371094 C 205.910156 282.003906 206.425781 281.582031 206.902344 281.109375 C 207.378906 280.640625 207.804688 280.125 208.179688 279.570312 C 208.550781 279.015625 208.867188 278.429688 209.125 277.8125 C 209.382812 277.191406 209.578125 276.554688 209.710938 275.898438 C 209.839844 275.242188 209.90625 274.582031 209.90625 273.910156 C 209.90625 272.566406 210.164062 271.273438 210.679688 270.03125 C 211.195312 268.789062 211.929688 267.691406 212.878906 266.742188 L 253.3125 226.359375 C 259.554688 220.125 262.730469 212.46875 262.484375 203.652344 Z M 262.484375 203.652344 " fill-opacity="1" fill-rule="evenodd"/><path fill="#e96f7b" d="M 237.183594 303.507812 L 237.058594 318.011719 C 237.054688 318.445312 237.003906 318.875 236.917969 319.300781 C 236.828125 319.726562 236.695312 320.136719 236.527344 320.539062 C 236.355469 320.9375 236.148438 321.316406 235.902344 321.675781 C 235.65625 322.035156 235.378906 322.367188 235.070312 322.671875 C 234.761719 322.976562 234.421875 323.246094 234.058594 323.484375 C 233.695312 323.722656 233.3125 323.925781 232.910156 324.089844 C 232.507812 324.253906 232.089844 324.375 231.664062 324.457031 C 231.238281 324.539062 230.804688 324.578125 230.371094 324.578125 L 154.9375 323.929688 C 154.609375 323.929688 154.285156 323.902344 153.960938 323.847656 C 153.574219 323.785156 153.191406 323.691406 152.820312 323.558594 C 152.449219 323.429688 152.09375 323.269531 151.75 323.074219 C 151.40625 322.882812 151.082031 322.660156 150.777344 322.410156 C 150.476562 322.160156 150.195312 321.882812 149.941406 321.585938 C 149.6875 321.285156 149.460938 320.964844 149.261719 320.625 C 149.0625 320.285156 148.898438 319.929688 148.761719 319.558594 C 148.628906 319.191406 148.527344 318.8125 148.460938 318.421875 C 148.390625 318.035156 148.359375 317.644531 148.359375 317.253906 L 148.484375 302.746094 C 148.488281 302.3125 148.539062 301.882812 148.625 301.457031 C 148.714844 301.03125 148.847656 300.617188 149.015625 300.21875 C 149.1875 299.820312 149.394531 299.441406 149.640625 299.082031 C 149.886719 298.722656 150.164062 298.390625 150.472656 298.085938 C 150.785156 297.78125 151.121094 297.507812 151.484375 297.269531 C 151.847656 297.03125 152.230469 296.832031 152.636719 296.667969 C 153.039062 296.503906 153.453125 296.382812 153.882812 296.300781 C 154.308594 296.21875 154.738281 296.175781 155.175781 296.179688 L 164.132812 296.257812 L 217.363281 296.714844 L 230.609375 296.828125 C 231.042969 296.832031 231.476562 296.878906 231.902344 296.964844 C 232.328125 297.054688 232.742188 297.183594 233.140625 297.355469 C 233.542969 297.523438 233.921875 297.730469 234.28125 297.976562 C 234.644531 298.21875 234.976562 298.496094 235.28125 298.808594 C 235.585938 299.117188 235.859375 299.453125 236.097656 299.820312 C 236.335938 300.183594 236.539062 300.566406 236.699219 300.96875 C 236.863281 301.371094 236.988281 301.785156 237.066406 302.214844 C 237.148438 302.640625 237.1875 303.074219 237.183594 303.507812 Z M 237.183594 303.507812 " fill-opacity="1" fill-rule="evenodd"/><path fill="#f1cbbc" d="M 100.34375 227.0625 C 91.929688 219.492188 76.632812 208.015625 64.859375 194.109375 C 59.660156 189.429688 51.808594 189.167969 46.859375 194.109375 C 41.90625 199.054688 41.746094 205.742188 46.859375 212.09375 L 42.851562 207.167969 C 38.261719 201.527344 35.8125 195.324219 35.839844 188.054688 L 36.039062 135.984375 C 36.136719 110.097656 24.003906 105.359375 15.144531 108.878906 C 10.15625 110.863281 6.203125 115.464844 6.066406 120.386719 L 3.347656 216.230469 C 3.097656 225.046875 6.273438 232.703125 12.519531 238.9375 L 55.921875 282.289062 L 55.921875 296.714844 L 109.152344 296.257812 L 109.171875 283.757812 L 109.21875 253.546875 C 109.234375 243.394531 107.886719 233.855469 100.34375 227.0625 Z M 100.34375 227.0625 " fill-opacity="1" fill-rule="evenodd"/><path fill="#f6dccd" d="M 100.34375 227.0625 C 91.929688 219.492188 76.632812 208.015625 64.859375 194.109375 C 59.660156 189.429688 51.808594 189.167969 46.859375 194.109375 C 41.90625 199.054688 41.746094 205.742188 46.859375 212.09375 L 42.851562 207.167969 C 38.261719 201.527344 35.8125 195.324219 35.839844 188.054688 L 36.039062 135.984375 C 36.136719 110.097656 24.003906 105.359375 15.144531 108.878906 L 12.457031 203.652344 C 12.207031 212.46875 15.386719 220.125 21.632812 226.359375 L 62.058594 266.742188 C 63.011719 267.691406 63.746094 268.789062 64.261719 270.03125 C 64.777344 271.273438 65.035156 272.566406 65.035156 273.910156 C 65.03125 274.582031 65.097656 275.242188 65.230469 275.898438 C 65.363281 276.554688 65.554688 277.191406 65.8125 277.8125 C 66.070312 278.429688 66.386719 279.015625 66.761719 279.570312 C 67.136719 280.125 67.5625 280.640625 68.039062 281.109375 C 68.511719 281.582031 69.03125 282.003906 69.589844 282.371094 C 70.148438 282.738281 70.738281 283.050781 71.359375 283.300781 C 71.980469 283.554688 72.621094 283.742188 73.277344 283.871094 C 73.9375 283.996094 74.601562 284.054688 75.269531 284.050781 L 109.171875 283.757812 L 109.21875 253.546875 C 109.234375 243.394531 107.886719 233.855469 100.34375 227.0625 Z M 100.34375 227.0625 " fill-opacity="1" fill-rule="evenodd"/><path fill="#e96f7b" d="M 124.921875 317.25 C 124.921875 317.683594 124.882812 318.117188 124.800781 318.542969 C 124.71875 318.96875 124.59375 319.382812 124.433594 319.785156 C 124.269531 320.1875 124.066406 320.570312 123.828125 320.933594 C 123.589844 321.296875 123.316406 321.632812 123.011719 321.945312 C 122.707031 322.253906 122.375 322.53125 122.015625 322.777344 C 121.65625 323.019531 121.277344 323.230469 120.875 323.398438 C 120.476562 323.570312 120.0625 323.699219 119.636719 323.789062 C 119.210938 323.878906 118.78125 323.925781 118.347656 323.929688 L 42.914062 324.578125 C 42.550781 324.578125 42.1875 324.554688 41.832031 324.5 C 41.445312 324.4375 41.070312 324.34375 40.703125 324.214844 C 40.332031 324.089844 39.980469 323.929688 39.640625 323.738281 C 39.300781 323.550781 38.980469 323.332031 38.675781 323.085938 C 38.375 322.839844 38.097656 322.570312 37.84375 322.277344 C 37.589844 321.980469 37.359375 321.667969 37.160156 321.332031 C 36.960938 321 36.792969 320.648438 36.65625 320.285156 C 36.519531 319.921875 36.414062 319.550781 36.339844 319.167969 C 36.269531 318.785156 36.230469 318.398438 36.226562 318.011719 L 36.097656 303.507812 C 36.097656 303.074219 36.136719 302.640625 36.21875 302.214844 C 36.300781 301.789062 36.425781 301.375 36.585938 300.972656 C 36.75 300.570312 36.953125 300.1875 37.191406 299.824219 C 37.429688 299.460938 37.703125 299.121094 38.007812 298.8125 C 38.3125 298.503906 38.644531 298.226562 39.003906 297.980469 C 39.363281 297.738281 39.746094 297.527344 40.144531 297.359375 C 40.546875 297.1875 40.957031 297.058594 41.382812 296.96875 C 41.808594 296.878906 42.238281 296.832031 42.675781 296.828125 L 55.921875 296.714844 L 109.152344 296.257812 L 118.109375 296.179688 C 118.503906 296.179688 118.894531 296.210938 119.28125 296.277344 C 119.671875 296.34375 120.050781 296.445312 120.421875 296.582031 C 120.789062 296.714844 121.144531 296.882812 121.488281 297.078125 C 121.828125 297.277344 122.148438 297.503906 122.449219 297.757812 C 122.75 298.011719 123.023438 298.292969 123.277344 298.59375 C 123.527344 298.898438 123.75 299.222656 123.941406 299.5625 C 124.136719 299.90625 124.296875 300.265625 124.425781 300.636719 C 124.558594 301.007812 124.652344 301.386719 124.714844 301.777344 C 124.769531 302.097656 124.796875 302.421875 124.800781 302.746094 Z M 124.921875 317.25 " fill-opacity="1" fill-rule="evenodd"/><path fill="#f59880" d="M 237.183594 303.507812 L 237.058594 318.011719 C 237.054688 318.445312 237.003906 318.875 236.917969 319.300781 C 236.828125 319.726562 236.695312 320.136719 236.527344 320.539062 C 236.355469 320.9375 236.148438 321.316406 235.902344 321.675781 C 235.65625 322.035156 235.378906 322.367188 235.070312 322.671875 C 234.761719 322.976562 234.421875 323.246094 234.058594 323.484375 C 233.695312 323.722656 233.3125 323.925781 232.910156 324.089844 C 232.507812 324.253906 232.089844 324.375 231.664062 324.457031 C 231.238281 324.539062 230.804688 324.578125 230.371094 324.578125 L 154.9375 323.929688 C 154.609375 323.929688 154.285156 323.902344 153.960938 323.847656 C 153.90625 323.492188 153.878906 323.128906 153.882812 322.765625 L 154.007812 308.261719 C 154.011719 307.828125 154.058594 307.398438 154.148438 306.972656 C 154.238281 306.546875 154.367188 306.132812 154.539062 305.734375 C 154.710938 305.335938 154.917969 304.957031 155.164062 304.597656 C 155.40625 304.238281 155.683594 303.90625 155.996094 303.601562 C 156.304688 303.296875 156.644531 303.023438 157.007812 302.785156 C 157.371094 302.546875 157.753906 302.347656 158.15625 302.183594 C 158.558594 302.019531 158.976562 301.898438 159.402344 301.816406 C 159.832031 301.734375 160.261719 301.691406 160.695312 301.695312 L 169.652344 301.773438 L 222.882812 302.230469 L 236.128906 302.34375 C 236.457031 302.347656 236.78125 302.375 237.105469 302.425781 C 237.160156 302.785156 237.1875 303.144531 237.183594 303.507812 Z M 237.183594 303.507812 " fill-opacity="1" fill-rule="evenodd"/><path fill="#f59880" d="M 124.921875 317.25 C 124.921875 317.683594 124.882812 318.117188 124.800781 318.542969 C 124.71875 318.96875 124.59375 319.382812 124.433594 319.785156 C 124.269531 320.1875 124.066406 320.570312 123.828125 320.933594 C 123.589844 321.296875 123.316406 321.632812 123.011719 321.945312 C 122.707031 322.253906 122.375 322.53125 122.015625 322.777344 C 121.65625 323.019531 121.277344 323.230469 120.875 323.398438 C 120.476562 323.570312 120.0625 323.699219 119.636719 323.789062 C 119.210938 323.878906 118.78125 323.925781 118.347656 323.929688 L 42.914062 324.578125 C 42.550781 324.578125 42.1875 324.554688 41.832031 324.5 C 41.777344 324.175781 41.75 323.851562 41.746094 323.527344 L 41.621094 309.023438 C 41.617188 308.589844 41.660156 308.15625 41.742188 307.730469 C 41.824219 307.304688 41.945312 306.890625 42.109375 306.488281 C 42.273438 306.085938 42.476562 305.703125 42.714844 305.339844 C 42.953125 304.976562 43.226562 304.636719 43.53125 304.328125 C 43.835938 304.019531 44.167969 303.742188 44.527344 303.496094 C 44.886719 303.253906 45.265625 303.042969 45.667969 302.875 C 46.066406 302.703125 46.480469 302.574219 46.90625 302.484375 C 47.332031 302.394531 47.761719 302.347656 48.195312 302.34375 L 61.445312 302.230469 L 114.675781 301.773438 L 123.632812 301.695312 C 123.996094 301.691406 124.355469 301.71875 124.714844 301.777344 C 124.769531 302.097656 124.796875 302.421875 124.800781 302.746094 Z M 124.921875 317.25 " fill-opacity="1" fill-rule="evenodd"/><g clip-path="url(#c88c55e6d3)"><path fill="#2d0d1b" d="M 137.15625 201.445312 C 135.75 201.4375 134.441406 201.078125 133.230469 200.367188 L 72.910156 165.578125 C 72.308594 165.242188 71.761719 164.832031 71.269531 164.347656 C 70.777344 163.863281 70.359375 163.324219 70.011719 162.726562 C 69.667969 162.128906 69.40625 161.496094 69.234375 160.828125 C 69.058594 160.160156 68.976562 159.484375 68.984375 158.792969 L 68.984375 89.21875 C 68.976562 88.527344 69.058594 87.847656 69.234375 87.179688 C 69.40625 86.515625 69.667969 85.882812 70.011719 85.285156 C 70.359375 84.6875 70.777344 84.144531 71.269531 83.660156 C 71.761719 83.175781 72.308594 82.765625 72.910156 82.429688 L 133.230469 47.644531 C 133.824219 47.289062 134.453125 47.023438 135.121094 46.839844 C 135.785156 46.65625 136.464844 46.566406 137.15625 46.566406 C 137.847656 46.566406 138.523438 46.65625 139.191406 46.839844 C 139.855469 47.023438 140.484375 47.289062 141.078125 47.644531 L 201.402344 82.429688 C 202.003906 82.765625 202.550781 83.175781 203.042969 83.660156 C 203.535156 84.148438 203.953125 84.6875 204.296875 85.285156 C 204.644531 85.882812 204.902344 86.515625 205.078125 87.183594 C 205.25 87.847656 205.335938 88.527344 205.324219 89.21875 L 205.324219 158.792969 C 205.335938 159.480469 205.25 160.160156 205.078125 160.828125 C 204.902344 161.496094 204.644531 162.125 204.296875 162.722656 C 203.953125 163.320312 203.535156 163.859375 203.042969 164.34375 C 202.550781 164.828125 202.003906 165.238281 201.402344 165.578125 L 141.078125 200.367188 C 139.867188 201.078125 138.558594 201.4375 137.15625 201.445312 Z M 137.15625 50.707031 C 136.492188 50.714844 135.875 50.886719 135.304688 51.226562 L 74.980469 86.011719 C 74.398438 86.332031 73.941406 86.78125 73.605469 87.355469 C 73.273438 87.933594 73.113281 88.550781 73.125 89.21875 L 73.125 158.792969 C 73.113281 159.457031 73.273438 160.078125 73.605469 160.652344 C 73.9375 161.226562 74.398438 161.675781 74.980469 161.996094 L 135.300781 196.785156 C 135.871094 197.128906 136.488281 197.300781 137.15625 197.300781 C 137.820312 197.300781 138.4375 197.128906 139.007812 196.785156 L 199.332031 161.996094 C 199.914062 161.675781 200.371094 161.226562 200.707031 160.652344 C 201.039062 160.074219 201.199219 159.457031 201.183594 158.792969 L 201.183594 89.21875 C 201.195312 88.550781 201.039062 87.933594 200.703125 87.355469 C 200.371094 86.78125 199.914062 86.332031 199.328125 86.011719 L 139.007812 51.226562 C 138.4375 50.886719 137.820312 50.714844 137.15625 50.707031 Z M 137.15625 50.707031 " fill-opacity="1" fill-rule="nonzero"/></g><g clip-path="url(#6c7c0a0193)"><path fill="#2d0d1b" d="M 137.15625 126.070312 C 136.785156 126.074219 136.441406 125.980469 136.121094 125.796875 L 70.777344 88.113281 C 70.539062 87.976562 70.335938 87.796875 70.167969 87.582031 C 70.003906 87.363281 69.882812 87.121094 69.8125 86.855469 C 69.742188 86.589844 69.722656 86.320312 69.761719 86.050781 C 69.796875 85.777344 69.882812 85.523438 70.019531 85.285156 C 70.726562 84.074219 71.6875 83.125 72.910156 82.429688 L 133.230469 47.644531 C 133.824219 47.289062 134.453125 47.023438 135.121094 46.839844 C 135.785156 46.65625 136.464844 46.566406 137.15625 46.566406 C 137.847656 46.566406 138.523438 46.65625 139.191406 46.839844 C 139.855469 47.023438 140.484375 47.289062 141.078125 47.644531 L 201.402344 82.429688 C 202.621094 83.125 203.582031 84.078125 204.292969 85.289062 C 204.429688 85.527344 204.515625 85.78125 204.550781 86.054688 C 204.585938 86.324219 204.570312 86.59375 204.496094 86.859375 C 204.425781 87.121094 204.308594 87.363281 204.140625 87.582031 C 203.972656 87.800781 203.769531 87.976562 203.535156 88.113281 L 138.191406 125.792969 C 137.871094 125.980469 137.523438 126.070312 137.15625 126.070312 Z M 75.199219 85.886719 L 137.15625 121.613281 L 199.113281 85.886719 L 139.007812 51.226562 C 138.4375 50.882812 137.820312 50.707031 137.152344 50.707031 C 136.488281 50.707031 135.871094 50.882812 135.300781 51.226562 Z M 75.199219 85.886719 " fill-opacity="1" fill-rule="nonzero"/></g><path fill="#2d0d1b" d="M 137.15625 201.433594 C 136.878906 201.433594 136.617188 201.382812 136.363281 201.277344 C 136.109375 201.171875 135.886719 201.023438 135.691406 200.828125 C 135.496094 200.636719 135.347656 200.410156 135.242188 200.160156 C 135.136719 199.90625 135.085938 199.640625 135.085938 199.367188 L 135.085938 124.003906 C 135.085938 123.632812 135.175781 123.289062 135.363281 122.96875 C 135.546875 122.648438 135.800781 122.394531 136.121094 122.210938 L 201.460938 84.527344 C 201.699219 84.390625 201.957031 84.304688 202.226562 84.269531 C 202.5 84.234375 202.769531 84.25 203.035156 84.324219 C 203.300781 84.394531 203.542969 84.511719 203.757812 84.679688 C 203.976562 84.847656 204.15625 85.050781 204.292969 85.289062 C 204.988281 86.503906 205.332031 87.816406 205.324219 89.214844 L 205.324219 158.792969 C 205.335938 159.480469 205.25 160.160156 205.078125 160.828125 C 204.902344 161.496094 204.644531 162.125 204.296875 162.722656 C 203.953125 163.320312 203.535156 163.859375 203.042969 164.34375 C 202.550781 164.828125 202.003906 165.238281 201.402344 165.578125 L 141.078125 200.367188 C 139.867188 201.070312 138.558594 201.429688 137.15625 201.433594 Z M 139.226562 125.199219 L 139.226562 196.660156 L 199.332031 161.996094 C 199.914062 161.675781 200.371094 161.226562 200.707031 160.652344 C 201.039062 160.078125 201.199219 159.457031 201.183594 158.792969 L 201.183594 89.46875 Z M 139.226562 125.199219 " fill-opacity="1" fill-rule="nonzero"/><path fill="#2d0d1b" d="M 113.691406 112.539062 C 113.320312 112.539062 112.976562 112.449219 112.65625 112.265625 L 93.488281 101.210938 C 93.328125 101.117188 93.1875 101.007812 93.058594 100.878906 C 92.929688 100.753906 92.820312 100.609375 92.730469 100.453125 C 92.636719 100.292969 92.570312 100.128906 92.523438 99.953125 C 92.476562 99.777344 92.453125 99.597656 92.453125 99.417969 C 92.453125 99.238281 92.476562 99.058594 92.523438 98.882812 C 92.570312 98.707031 92.636719 98.542969 92.730469 98.382812 C 92.820312 98.226562 92.929688 98.082031 93.058594 97.957031 C 93.1875 97.828125 93.328125 97.71875 93.488281 97.625 L 159.582031 59.507812 C 159.902344 59.324219 160.25 59.230469 160.621094 59.230469 C 160.988281 59.230469 161.335938 59.324219 161.65625 59.507812 L 180.824219 70.5625 C 181.144531 70.746094 181.394531 71 181.582031 71.320312 C 181.765625 71.640625 181.859375 71.984375 181.859375 72.355469 C 181.859375 72.722656 181.765625 73.066406 181.582031 73.386719 C 181.394531 73.707031 181.144531 73.960938 180.824219 74.144531 L 114.726562 112.261719 C 114.40625 112.449219 114.0625 112.539062 113.691406 112.539062 Z M 98.664062 99.417969 L 113.691406 108.082031 L 175.644531 72.355469 L 160.621094 63.6875 Z M 98.664062 99.417969 " fill-opacity="1" fill-rule="nonzero"/><path fill="#2d0d1b" d="M 110.804688 140.457031 C 109.917969 140.457031 109.09375 140.234375 108.328125 139.789062 L 96.375 132.894531 C 95.773438 132.554688 95.226562 132.144531 94.734375 131.660156 C 94.242188 131.179688 93.824219 130.636719 93.480469 130.039062 C 93.132812 129.441406 92.875 128.8125 92.699219 128.144531 C 92.527344 127.476562 92.445312 126.796875 92.453125 126.109375 L 92.453125 99.417969 C 92.453125 99.050781 92.546875 98.707031 92.730469 98.386719 C 92.914062 98.066406 93.167969 97.8125 93.488281 97.628906 C 93.808594 97.441406 94.152344 97.351562 94.523438 97.351562 C 94.894531 97.351562 95.238281 97.441406 95.558594 97.628906 L 114.726562 108.679688 C 115.046875 108.863281 115.300781 109.117188 115.484375 109.4375 C 115.667969 109.757812 115.761719 110.101562 115.761719 110.472656 L 115.761719 135.496094 C 115.761719 135.820312 115.726562 136.144531 115.664062 136.460938 C 115.601562 136.78125 115.503906 137.089844 115.378906 137.390625 C 115.257812 137.691406 115.101562 137.976562 114.921875 138.246094 C 114.742188 138.515625 114.535156 138.765625 114.304688 138.996094 C 114.078125 139.226562 113.828125 139.433594 113.554688 139.613281 C 113.285156 139.796875 113 139.949219 112.699219 140.074219 C 112.398438 140.199219 112.089844 140.296875 111.773438 140.359375 C 111.453125 140.425781 111.128906 140.457031 110.804688 140.460938 Z M 96.59375 103 L 96.59375 126.109375 C 96.582031 126.773438 96.738281 127.390625 97.074219 127.96875 C 97.40625 128.542969 97.863281 128.992188 98.445312 129.308594 L 110.394531 136.203125 C 110.519531 136.277344 110.65625 136.3125 110.804688 136.3125 C 110.949219 136.3125 111.085938 136.273438 111.210938 136.203125 C 111.335938 136.128906 111.4375 136.027344 111.511719 135.902344 C 111.582031 135.777344 111.621094 135.640625 111.621094 135.496094 L 111.621094 111.664062 Z M 96.59375 103 " fill-opacity="1" fill-rule="nonzero"/><path fill="#2d0d1b" d="M 217.335938 298.894531 L 217.316406 298.894531 L 164.085938 298.4375 C 163.8125 298.4375 163.550781 298.382812 163.300781 298.277344 C 163.050781 298.171875 162.828125 298.019531 162.636719 297.828125 C 162.441406 297.632812 162.292969 297.410156 162.191406 297.160156 C 162.085938 296.90625 162.035156 296.644531 162.035156 296.375 L 161.96875 253.660156 C 161.953125 244.074219 163.078125 233.246094 171.527344 225.640625 C 173.738281 223.648438 176.460938 221.355469 179.34375 218.929688 C 187.75 211.855469 198.214844 203.046875 206.816406 192.886719 C 206.875 192.816406 206.941406 192.75 207.007812 192.6875 C 213.140625 187.171875 222.296875 187.203125 227.863281 192.761719 C 230.3125 195.210938 231.734375 198.058594 232.117188 201.066406 C 234.316406 197.050781 235.390625 192.753906 235.347656 188.175781 L 235.148438 136.105469 C 235.078125 118.007812 240.816406 110.777344 245.644531 107.894531 C 250.121094 105.222656 255.777344 105.246094 260.777344 107.960938 C 265.792969 110.679688 269.121094 115.578125 269.261719 120.4375 L 271.980469 216.285156 C 272.242188 225.617188 268.953125 233.769531 262.203125 240.511719 L 219.40625 283.257812 L 219.40625 296.824219 C 219.40625 297.097656 219.351562 297.363281 219.246094 297.617188 C 219.140625 297.871094 218.992188 298.09375 218.796875 298.285156 C 218.605469 298.480469 218.378906 298.628906 218.125 298.734375 C 217.871094 298.839844 217.609375 298.894531 217.335938 298.894531 Z M 166.171875 294.320312 L 215.265625 294.742188 L 215.265625 282.402344 C 215.265625 281.832031 215.46875 281.34375 215.871094 280.941406 L 259.277344 237.589844 C 265.191406 231.679688 268.070312 224.554688 267.84375 216.402344 L 265.121094 120.558594 C 265.027344 117.140625 262.546875 113.625 258.804688 111.597656 C 255.046875 109.558594 251.023438 109.503906 247.769531 111.445312 C 242.253906 114.738281 239.242188 123.492188 239.292969 136.089844 L 239.488281 188.160156 C 239.515625 195.6875 237.070312 202.371094 232.015625 208.585938 L 228.011719 213.511719 C 227.835938 213.722656 227.628906 213.894531 227.390625 214.027344 C 227.148438 214.15625 226.890625 214.234375 226.617188 214.265625 C 226.347656 214.292969 226.078125 214.269531 225.816406 214.191406 C 225.554688 214.113281 225.316406 213.988281 225.101562 213.816406 C 224.886719 213.644531 224.714844 213.4375 224.585938 213.199219 C 224.453125 212.957031 224.375 212.699219 224.34375 212.429688 C 224.316406 212.15625 224.339844 211.886719 224.414062 211.625 C 224.492188 211.363281 224.617188 211.125 224.789062 210.910156 C 229.148438 205.496094 229.203125 199.945312 224.9375 195.6875 C 220.894531 191.648438 214.445312 191.652344 209.886719 195.671875 C 201.074219 206.050781 190.511719 214.941406 182.015625 222.09375 C 179.035156 224.601562 176.460938 226.769531 174.300781 228.710938 C 167.078125 235.214844 166.097656 244.542969 166.113281 253.65625 Z M 166.171875 294.320312 " fill-opacity="1" fill-rule="nonzero"/><g clip-path="url(#a808d433b6)"><path fill="#2d0d1b" d="M 230.40625 326.757812 L 230.324219 326.757812 L 154.894531 326.113281 C 154.457031 326.109375 154.027344 326.074219 153.597656 326.003906 C 153.089844 325.917969 152.589844 325.792969 152.105469 325.621094 C 151.617188 325.449219 151.152344 325.234375 150.703125 324.980469 C 150.253906 324.726562 149.828125 324.4375 149.433594 324.109375 C 149.035156 323.777344 148.667969 323.417969 148.335938 323.023438 C 148.003906 322.632812 147.707031 322.210938 147.445312 321.765625 C 147.1875 321.320312 146.96875 320.855469 146.792969 320.371094 C 146.617188 319.886719 146.484375 319.390625 146.394531 318.882812 C 146.304688 318.375 146.261719 317.863281 146.261719 317.347656 L 146.386719 302.84375 C 146.394531 302.273438 146.457031 301.707031 146.574219 301.148438 C 146.691406 300.589844 146.859375 300.050781 147.085938 299.523438 C 147.308594 299 147.582031 298.5 147.902344 298.03125 C 148.222656 297.558594 148.589844 297.125 148.996094 296.722656 C 149.402344 296.324219 149.847656 295.96875 150.324219 295.652344 C 150.800781 295.339844 151.304688 295.078125 151.835938 294.863281 C 152.363281 294.648438 152.910156 294.488281 153.46875 294.382812 C 154.03125 294.273438 154.597656 294.222656 155.167969 294.226562 L 230.601562 294.875 C 231.171875 294.878906 231.738281 294.9375 232.296875 295.054688 C 232.855469 295.171875 233.398438 295.339844 233.925781 295.5625 C 234.449219 295.785156 234.949219 296.058594 235.421875 296.378906 C 235.894531 296.699219 236.328125 297.066406 236.730469 297.472656 C 237.132812 297.878906 237.488281 298.320312 237.800781 298.796875 C 238.117188 299.273438 238.378906 299.777344 238.59375 300.304688 C 238.808594 300.835938 238.96875 301.378906 239.074219 301.941406 C 239.183594 302.5 239.234375 303.066406 239.230469 303.636719 L 239.230469 303.640625 L 239.101562 318.140625 C 239.097656 318.710938 239.035156 319.269531 238.917969 319.824219 C 238.804688 320.378906 238.636719 320.917969 238.414062 321.441406 C 238.191406 321.964844 237.921875 322.460938 237.605469 322.929688 C 237.285156 323.398438 236.925781 323.832031 236.523438 324.230469 C 236.121094 324.632812 235.683594 324.988281 235.210938 325.300781 C 234.738281 325.617188 234.238281 325.882812 233.714844 326.097656 C 233.1875 326.3125 232.648438 326.476562 232.09375 326.589844 C 231.535156 326.699219 230.972656 326.757812 230.40625 326.757812 Z M 155.089844 298.359375 C 154.789062 298.363281 154.496094 298.390625 154.203125 298.453125 C 153.914062 298.511719 153.628906 298.597656 153.355469 298.710938 C 153.082031 298.824219 152.820312 298.964844 152.570312 299.128906 C 152.324219 299.292969 152.09375 299.480469 151.882812 299.6875 C 151.671875 299.898438 151.484375 300.125 151.316406 300.371094 C 151.148438 300.617188 151.007812 300.875 150.890625 301.148438 C 150.777344 301.421875 150.6875 301.707031 150.625 301.996094 C 150.566406 302.285156 150.53125 302.582031 150.527344 302.878906 L 150.40625 317.382812 C 150.402344 317.929688 150.496094 318.457031 150.683594 318.96875 C 150.871094 319.480469 151.140625 319.945312 151.496094 320.359375 C 151.847656 320.777344 152.261719 321.117188 152.738281 321.386719 C 153.214844 321.652344 153.71875 321.832031 154.257812 321.917969 C 154.480469 321.957031 154.703125 321.976562 154.925781 321.976562 L 230.363281 322.621094 L 230.402344 322.621094 C 230.703125 322.621094 230.996094 322.589844 231.285156 322.53125 C 231.578125 322.472656 231.859375 322.386719 232.136719 322.273438 C 232.410156 322.160156 232.671875 322.019531 232.917969 321.855469 C 233.164062 321.691406 233.394531 321.503906 233.605469 321.292969 C 233.816406 321.085938 234.007812 320.855469 234.171875 320.609375 C 234.339844 320.367188 234.480469 320.105469 234.597656 319.832031 C 234.710938 319.558594 234.800781 319.277344 234.863281 318.988281 C 234.921875 318.695312 234.957031 318.402344 234.960938 318.105469 L 235.085938 303.605469 C 235.089844 303.355469 235.070312 303.109375 235.03125 302.863281 C 234.945312 302.332031 234.769531 301.832031 234.503906 301.363281 C 234.238281 300.890625 233.902344 300.480469 233.496094 300.128906 C 233.085938 299.777344 232.632812 299.503906 232.128906 299.3125 C 231.625 299.121094 231.101562 299.019531 230.5625 299.011719 L 155.128906 298.363281 Z M 237.160156 303.621094 Z M 237.160156 303.621094 " fill-opacity="1" fill-rule="nonzero"/></g><path fill="#2d0d1b" d="M 55.894531 298.894531 C 55.621094 298.894531 55.355469 298.84375 55.101562 298.738281 C 54.851562 298.632812 54.625 298.484375 54.433594 298.289062 C 54.238281 298.097656 54.089844 297.871094 53.984375 297.621094 C 53.878906 297.367188 53.824219 297.101562 53.824219 296.828125 L 53.824219 283.261719 L 11.03125 240.515625 C 4.277344 233.773438 0.988281 225.621094 1.25 216.289062 L 3.96875 120.441406 C 4.125 114.941406 8.394531 109.441406 14.355469 107.074219 C 19.195312 105.148438 24.285156 105.621094 28.316406 108.363281 C 32.808594 111.417969 38.148438 118.714844 38.082031 136.109375 L 37.882812 188.175781 C 37.835938 192.753906 38.914062 197.050781 41.113281 201.066406 C 41.496094 198.0625 42.917969 195.214844 45.371094 192.761719 C 50.933594 187.203125 60.09375 187.171875 66.222656 192.691406 C 66.289062 192.753906 66.355469 192.820312 66.414062 192.890625 C 75.019531 203.050781 85.480469 211.855469 93.886719 218.933594 C 96.769531 221.359375 99.492188 223.652344 101.703125 225.640625 C 110.152344 233.25 111.277344 244.074219 111.261719 253.664062 L 111.195312 296.375 C 111.195312 296.648438 111.144531 296.910156 111.039062 297.160156 C 110.9375 297.414062 110.789062 297.636719 110.59375 297.828125 C 110.402344 298.023438 110.179688 298.171875 109.929688 298.277344 C 109.679688 298.382812 109.417969 298.4375 109.144531 298.441406 L 55.914062 298.898438 Z M 20.328125 110.03125 C 18.792969 110.046875 17.308594 110.339844 15.882812 110.914062 C 11.414062 112.691406 8.21875 116.65625 8.109375 120.554688 L 5.386719 216.402344 C 5.160156 224.554688 8.042969 231.679688 13.957031 237.585938 L 57.359375 280.9375 C 57.761719 281.34375 57.964844 281.828125 57.964844 282.402344 L 57.964844 294.742188 L 107.058594 294.316406 L 107.121094 253.652344 C 107.132812 244.542969 106.148438 235.214844 98.929688 228.710938 C 96.769531 226.765625 94.195312 224.601562 91.214844 222.09375 C 82.722656 214.941406 72.15625 206.046875 63.34375 195.667969 C 58.859375 191.714844 52.273438 191.710938 48.296875 195.683594 C 44.03125 199.945312 44.085938 205.492188 48.445312 210.910156 C 48.617188 211.121094 48.742188 211.359375 48.820312 211.625 C 48.898438 211.886719 48.921875 212.15625 48.894531 212.425781 C 48.863281 212.699219 48.785156 212.957031 48.652344 213.199219 C 48.523438 213.4375 48.351562 213.644531 48.136719 213.816406 C 47.921875 213.988281 47.683594 214.113281 47.421875 214.191406 C 47.15625 214.269531 46.890625 214.296875 46.617188 214.265625 C 46.34375 214.238281 46.085938 214.15625 45.84375 214.027344 C 45.605469 213.894531 45.398438 213.722656 45.222656 213.507812 L 41.21875 208.585938 C 36.160156 202.367188 33.714844 195.683594 33.742188 188.160156 L 33.941406 136.089844 C 33.988281 123.933594 31.160156 115.300781 25.984375 111.777344 C 24.28125 110.605469 22.398438 110.023438 20.328125 110.03125 Z M 20.328125 110.03125 " fill-opacity="1" fill-rule="nonzero"/><g clip-path="url(#eafdd1f05a)"><path fill="#2d0d1b" d="M 42.839844 326.757812 C 42.390625 326.757812 41.945312 326.722656 41.5 326.65625 C 40.992188 326.582031 40.496094 326.460938 40.011719 326.292969 C 39.527344 326.128906 39.0625 325.921875 38.613281 325.675781 C 38.164062 325.429688 37.738281 325.144531 37.34375 324.820312 C 36.945312 324.5 36.578125 324.144531 36.242188 323.757812 C 35.90625 323.371094 35.609375 322.957031 35.347656 322.515625 C 35.085938 322.074219 34.863281 321.617188 34.683594 321.136719 C 34.503906 320.65625 34.367188 320.167969 34.273438 319.664062 C 34.179688 319.160156 34.132812 318.652344 34.128906 318.140625 L 34 303.636719 C 33.996094 303.066406 34.050781 302.503906 34.15625 301.941406 C 34.261719 301.382812 34.425781 300.835938 34.636719 300.308594 C 34.851562 299.777344 35.117188 299.277344 35.429688 298.796875 C 35.746094 298.320312 36.101562 297.878906 36.5 297.472656 C 36.902344 297.066406 37.339844 296.703125 37.8125 296.382812 C 38.28125 296.058594 38.78125 295.789062 39.308594 295.566406 C 39.832031 295.339844 40.375 295.171875 40.9375 295.054688 C 41.496094 294.9375 42.058594 294.878906 42.632812 294.871094 L 118.066406 294.226562 L 118.144531 294.226562 C 118.65625 294.226562 119.164062 294.273438 119.671875 294.367188 C 120.175781 294.460938 120.667969 294.59375 121.152344 294.773438 C 121.632812 294.953125 122.09375 295.171875 122.535156 295.433594 C 122.976562 295.695312 123.394531 295.992188 123.785156 296.324219 C 124.175781 296.65625 124.53125 297.023438 124.859375 297.417969 C 125.183594 297.816406 125.472656 298.238281 125.726562 298.683594 C 125.976562 299.132812 126.1875 299.597656 126.355469 300.082031 C 126.527344 300.566406 126.652344 301.058594 126.734375 301.566406 C 126.804688 301.988281 126.839844 302.414062 126.84375 302.84375 L 126.964844 317.347656 C 126.96875 317.917969 126.914062 318.484375 126.808594 319.042969 C 126.699219 319.605469 126.539062 320.148438 126.324219 320.675781 C 126.109375 321.203125 125.847656 321.707031 125.53125 322.183594 C 125.21875 322.660156 124.863281 323.101562 124.460938 323.507812 C 124.0625 323.914062 123.625 324.28125 123.15625 324.601562 C 122.683594 324.921875 122.183594 325.195312 121.660156 325.417969 C 121.132812 325.640625 120.589844 325.8125 120.03125 325.929688 C 119.472656 326.046875 118.910156 326.105469 118.339844 326.113281 L 42.902344 326.757812 Z M 118.144531 298.359375 L 118.101562 298.359375 L 42.667969 299.007812 C 42.367188 299.011719 42.070312 299.046875 41.777344 299.105469 C 41.484375 299.167969 41.203125 299.257812 40.925781 299.375 C 40.652344 299.492188 40.390625 299.636719 40.144531 299.804688 C 39.894531 299.972656 39.667969 300.164062 39.457031 300.375 C 39.25 300.589844 39.0625 300.820312 38.898438 301.070312 C 38.730469 301.320312 38.59375 301.582031 38.480469 301.859375 C 38.367188 302.136719 38.285156 302.421875 38.226562 302.714844 C 38.167969 303.007812 38.140625 303.304688 38.144531 303.601562 L 38.269531 318.105469 C 38.277344 318.644531 38.378906 319.164062 38.570312 319.667969 C 38.761719 320.171875 39.035156 320.628906 39.386719 321.035156 C 39.742188 321.441406 40.152344 321.777344 40.621094 322.042969 C 41.09375 322.304688 41.59375 322.480469 42.125 322.570312 C 42.375 322.605469 42.621094 322.621094 42.871094 322.621094 L 118.304688 321.976562 C 118.601562 321.972656 118.898438 321.9375 119.191406 321.878906 C 119.484375 321.816406 119.765625 321.726562 120.042969 321.609375 C 120.316406 321.492188 120.578125 321.347656 120.824219 321.179688 C 121.070312 321.011719 121.300781 320.820312 121.507812 320.609375 C 121.71875 320.394531 121.90625 320.164062 122.070312 319.914062 C 122.234375 319.664062 122.375 319.402344 122.484375 319.125 C 122.597656 318.847656 122.683594 318.566406 122.742188 318.269531 C 122.796875 317.976562 122.824219 317.683594 122.824219 317.382812 L 122.703125 302.875 C 122.703125 302.65625 122.683594 302.441406 122.648438 302.226562 C 122.5625 301.6875 122.386719 301.183594 122.121094 300.710938 C 121.855469 300.234375 121.515625 299.820312 121.105469 299.46875 C 120.691406 299.113281 120.230469 298.84375 119.722656 298.652344 C 119.214844 298.460938 118.6875 298.363281 118.144531 298.359375 Z M 118.144531 298.359375 " fill-opacity="1" fill-rule="nonzero"/></g><g clip-path="url(#85cf2e71e0)"><g clip-path="url(#feb92657f4)"><g clip-path="url(#f039858aa9)"><g transform="matrix(1, 0, 0, 1, 43, 23)"><g clip-path="url(#a041b11e9b)"><g clip-path="url(#e9967f0f7f)"><g clip-path="url(#051a62beb6)"><g clip-path="url(#6a334e6cc9)"><path fill="#ffd05b" d="M 73.789062 -23 L 207.6875 68.441406 L 111.246094 209.664062 L -22.652344 118.222656 Z M 73.789062 -23 " fill-opacity="1" fill-rule="nonzero"/></g></g></g></g></g></g></g></g><g clip-path="url(#01c2845453)"><path fill="#ffffff" d="M 136.738281 145.355469 L 136.738281 159.027344 C 136.738281 159.417969 136.929688 159.75 137.265625 159.941406 L 147.96875 166.121094 C 148.671875 166.527344 149.550781 166.023438 149.550781 165.207031 L 149.550781 146.949219 L 193.722656 121.445312 L 207.644531 129.484375 C 208.761719 130.128906 209.402344 131.238281 209.402344 132.527344 L 209.402344 179.476562 C 209.402344 180.765625 208.761719 181.875 207.644531 182.519531 L 166.988281 205.992188 C 165.871094 206.636719 164.589844 206.636719 163.472656 205.992188 L 122.816406 182.519531 C 121.699219 181.875 121.058594 180.765625 121.058594 179.476562 L 121.058594 136.992188 L 133.605469 144.234375 C 134.597656 144.804688 135.65625 145.179688 136.738281 145.355469 Z M 139.925781 39.382812 C 138.808594 38.738281 137.53125 38.738281 136.414062 39.382812 L 95.753906 62.855469 C 94.636719 63.5 94 64.609375 94 65.898438 L 94 112.847656 C 94 114.136719 94.636719 115.246094 95.753906 115.890625 L 136.414062 139.367188 C 137.53125 140.011719 138.808594 140.011719 139.925781 139.367188 L 180.585938 115.890625 C 181.703125 115.246094 182.34375 114.136719 182.34375 112.847656 L 182.34375 65.898438 C 182.34375 64.609375 181.703125 63.5 180.585938 62.855469 L 166.660156 54.816406 L 122.488281 80.320312 L 122.488281 98.578125 C 122.488281 99.394531 121.613281 99.898438 120.910156 99.492188 L 110.207031 93.3125 C 109.871094 93.121094 109.679688 92.789062 109.679688 92.402344 L 109.679688 72.925781 L 153.851562 47.421875 Z M 88.378906 98.921875 L 77.371094 105.277344 L 77.371094 124.753906 C 77.371094 125.140625 77.5625 125.472656 77.894531 125.664062 L 88.597656 131.84375 C 89.304688 132.25 90.179688 131.746094 90.179688 130.929688 L 90.179688 118.316406 C 90.910156 119.289062 91.839844 120.121094 92.945312 120.757812 L 115.4375 133.746094 L 115.4375 167.203125 L 107.617188 171.714844 C 106.5 172.363281 105.21875 172.363281 104.101562 171.714844 L 63.445312 148.242188 C 62.328125 147.597656 61.6875 146.488281 61.6875 145.199219 L 61.6875 98.25 C 61.6875 96.960938 62.328125 95.851562 63.445312 95.207031 L 88.378906 80.8125 Z M 88.378906 98.921875 " fill-opacity="1" fill-rule="evenodd"/></g></g></g></svg>