<svg xmlns="http://www.w3.org/2000/svg" xmlns:xlink="http://www.w3.org/1999/xlink" width="500" zoomAndPan="magnify" viewBox="0 0 375 374.999991" height="500" preserveAspectRatio="xMidYMid meet" version="1.0"><defs><clipPath id="2de0624046"><path d="M 96 55.285156 L 278 55.285156 L 278 320 L 96 320 Z M 96 55.285156 " clip-rule="nonzero"/></clipPath></defs><rect x="-37.5" width="450" fill="#ffffff" y="-37.499999" height="449.999989" fill-opacity="1"/><rect x="-37.5" width="450" fill="#324a5e" y="-37.499999" height="449.999989" fill-opacity="1"/><path fill="#cce4ff" d="M 132.761719 74.726562 L 213.761719 74.726562 L 242.203125 102.0625 L 242.203125 210.121094 L 132.761719 210.121094 Z M 132.761719 74.726562 " fill-opacity="1" fill-rule="evenodd"/><path fill="#b5d2f2" d="M 140.796875 74.726562 L 213.761719 74.726562 L 242.203125 102.0625 L 242.203125 200.480469 L 140.796875 200.480469 Z M 140.796875 74.726562 " fill-opacity="1" fill-rule="evenodd"/><path fill="#ffecc7" d="M 147.527344 58.359375 L 228.527344 58.359375 L 256.96875 85.695312 L 256.96875 193.738281 L 147.527344 193.738281 Z M 147.527344 58.359375 " fill-opacity="1" fill-rule="evenodd"/><path fill="#ffc97b" d="M 256.96875 85.695312 L 228.527344 85.695312 L 228.527344 58.359375 Z M 256.96875 85.695312 " fill-opacity="1" fill-rule="evenodd"/><path fill="#23a7f1" d="M 99.449219 262.496094 L 122.152344 239.757812 L 176.5 294.21875 L 153.796875 316.960938 Z M 99.449219 262.496094 " fill-opacity="1" fill-rule="evenodd"/><path fill="#ffcebf" d="M 130.175781 247.804688 L 149.320312 230.320312 C 162.042969 220.207031 174.339844 220.042969 186.226562 229.316406 L 214.1875 229.316406 C 220.722656 229.316406 226.074219 234.675781 226.074219 241.226562 C 226.074219 243.285156 225.542969 245.304688 224.515625 247.101562 L 251.429688 220.722656 C 256.675781 215.570312 265.167969 215.671875 270.296875 220.925781 C 275.425781 226.183594 275.335938 234.675781 270.089844 239.8125 L 250.933594 258.597656 L 237.488281 271.769531 C 233.976562 275.214844 229.746094 276.9375 224.824219 276.9375 L 175.121094 276.964844 L 167.199219 284.898438 Z M 130.175781 247.804688 " fill-opacity="1" fill-rule="evenodd"/><g clip-path="url(#2de0624046)"><path fill="#000000" d="M 133.035156 213.628906 L 241.914062 213.628906 C 243.90625 213.628906 245.523438 212.011719 245.523438 210.011719 L 245.523438 197.332031 L 256.601562 197.332031 C 258.597656 197.332031 260.210938 195.710938 260.210938 193.714844 L 260.210938 86.214844 C 260.210938 85.230469 259.8125 84.289062 259.101562 83.605469 L 230.804688 56.414062 C 230.132812 55.765625 229.238281 55.40625 228.304688 55.40625 L 147.726562 55.40625 C 145.730469 55.40625 144.117188 57.023438 144.117188 59.023438 L 144.117188 71.703125 L 133.035156 71.703125 C 131.042969 71.703125 129.425781 73.324219 129.425781 75.320312 L 129.425781 210.011719 C 129.425781 212.011719 131.042969 213.628906 133.035156 213.628906 Z M 231.914062 67.503906 L 247.621094 82.597656 L 231.914062 82.597656 Z M 151.335938 62.640625 L 224.695312 62.640625 L 224.695312 86.214844 C 224.695312 88.214844 226.3125 89.832031 228.304688 89.832031 L 252.992188 89.832031 L 252.992188 190.097656 L 151.335938 190.097656 Z M 136.648438 78.9375 L 144.117188 78.9375 L 144.117188 193.714844 C 144.117188 195.710938 145.730469 197.332031 147.726562 197.332031 L 238.300781 197.332031 L 238.300781 206.394531 L 136.648438 206.394531 Z M 160.253906 83.066406 C 160.253906 81.070312 161.867188 79.449219 163.863281 79.449219 L 207.417969 79.449219 C 209.414062 79.449219 211.03125 81.070312 211.03125 83.066406 C 211.03125 85.066406 209.414062 86.683594 207.417969 86.683594 L 163.863281 86.683594 C 161.867188 86.683594 160.253906 85.066406 160.253906 83.066406 Z M 160.253906 97.503906 C 160.253906 95.507812 161.867188 93.886719 163.863281 93.886719 L 207.417969 93.886719 C 209.414062 93.886719 211.03125 95.507812 211.03125 97.503906 C 211.03125 99.503906 209.414062 101.121094 207.417969 101.121094 L 163.863281 101.121094 C 161.867188 101.121094 160.253906 99.503906 160.253906 97.503906 Z M 160.253906 111.929688 C 160.253906 109.933594 161.867188 108.3125 163.863281 108.3125 L 240.480469 108.3125 C 242.472656 108.3125 244.089844 109.933594 244.089844 111.929688 C 244.089844 113.925781 242.472656 115.546875 240.480469 115.546875 L 163.863281 115.546875 C 161.867188 115.546875 160.253906 113.925781 160.253906 111.929688 Z M 160.253906 126.367188 C 160.253906 124.371094 161.867188 122.75 163.863281 122.75 L 240.480469 122.75 C 242.472656 122.75 244.089844 124.371094 244.089844 126.367188 C 244.089844 128.367188 242.472656 129.984375 240.480469 129.984375 L 163.863281 129.984375 C 161.867188 129.984375 160.253906 128.367188 160.253906 126.367188 Z M 160.253906 140.808594 C 160.253906 138.808594 161.867188 137.191406 163.863281 137.191406 L 240.480469 137.191406 C 242.472656 137.191406 244.089844 138.808594 244.089844 140.808594 C 244.089844 142.804688 242.472656 144.425781 240.480469 144.425781 L 163.863281 144.425781 C 161.867188 144.425781 160.253906 142.804688 160.253906 140.808594 Z M 160.253906 155.246094 C 160.253906 153.25 161.867188 151.628906 163.863281 151.628906 L 240.480469 151.628906 C 242.472656 151.628906 244.089844 153.25 244.089844 155.246094 C 244.089844 157.246094 242.472656 158.863281 240.480469 158.863281 L 163.863281 158.863281 C 161.867188 158.863281 160.253906 157.242188 160.253906 155.246094 Z M 160.253906 169.671875 C 160.253906 167.671875 161.867188 166.054688 163.863281 166.054688 L 240.480469 166.054688 C 242.472656 166.054688 244.089844 167.671875 244.089844 169.671875 C 244.089844 171.667969 242.472656 173.289062 240.480469 173.289062 L 163.863281 173.289062 C 161.867188 173.289062 160.253906 171.667969 160.253906 169.671875 Z M 272.441406 218.21875 C 269.300781 215 265.078125 213.199219 260.558594 213.152344 C 260.496094 213.148438 260.433594 213.148438 260.371094 213.148438 C 255.921875 213.148438 251.734375 214.851562 248.566406 217.957031 L 228.996094 237.132812 C 227.296875 230.449219 221.234375 225.492188 214.039062 225.492188 L 187.4375 225.492188 C 174.558594 215.996094 160.691406 216.597656 147.265625 227.269531 C 147.199219 227.320312 147.136719 227.375 147.078125 227.429688 L 130.585938 242.496094 L 125.035156 236.933594 C 124.359375 236.253906 123.441406 235.875 122.484375 235.875 C 121.527344 235.875 120.609375 236.253906 119.929688 236.933594 L 97.351562 259.558594 C 95.941406 260.96875 95.941406 263.261719 97.351562 264.671875 L 151.414062 318.855469 C 152.089844 319.53125 153.011719 319.914062 153.96875 319.914062 C 154.925781 319.914062 155.84375 319.53125 156.519531 318.855469 L 179.101562 296.230469 C 180.511719 294.816406 180.511719 292.527344 179.101562 291.113281 L 172.398438 284.398438 L 176.667969 280.125 L 224.636719 280.097656 C 230.476562 280.097656 235.5625 278.015625 239.746094 273.910156 L 272.179688 242.136719 C 278.832031 235.617188 278.949219 224.890625 272.441406 218.21875 Z M 153.96875 311.179688 L 105.007812 262.117188 L 122.484375 244.605469 L 127.800781 249.933594 C 127.835938 249.976562 127.871094 250.019531 127.914062 250.058594 L 146.589844 268.765625 L 171.445312 293.671875 Z M 267.128906 236.964844 L 234.695312 268.742188 C 231.867188 271.515625 228.578125 272.863281 224.632812 272.863281 L 175.171875 272.894531 C 174.21875 272.894531 173.300781 273.273438 172.625 273.949219 L 167.296875 279.277344 L 150.574219 262.527344 L 135.695312 247.617188 L 151.847656 232.863281 C 163.140625 223.929688 173.363281 223.644531 184.003906 231.960938 C 184.640625 232.457031 185.421875 232.726562 186.226562 232.726562 L 214.039062 232.726562 C 218.570312 232.726562 222.253906 236.417969 222.253906 240.957031 C 222.253906 241.207031 222.238281 241.453125 222.214844 241.695312 C 222.210938 241.757812 222.207031 241.816406 222.199219 241.878906 C 222.171875 242.109375 222.136719 242.335938 222.09375 242.5625 C 222.082031 242.625 222.0625 242.691406 222.050781 242.753906 C 222.011719 242.914062 221.972656 243.070312 221.929688 243.226562 C 221.898438 243.324219 221.875 243.417969 221.84375 243.511719 C 221.804688 243.632812 221.757812 243.746094 221.714844 243.863281 C 221.566406 244.246094 221.394531 244.617188 221.1875 244.972656 C 221.164062 245.015625 221.140625 245.0625 221.117188 245.109375 C 219.691406 247.542969 217.054688 249.183594 214.039062 249.183594 L 175.175781 249.183594 C 173.183594 249.183594 171.566406 250.804688 171.566406 252.800781 C 171.566406 254.800781 173.179688 256.417969 175.175781 256.417969 L 214.039062 256.417969 C 219.613281 256.417969 224.503906 253.445312 227.21875 249 L 253.617188 223.128906 C 257.425781 219.394531 263.558594 219.460938 267.277344 223.277344 C 271.003906 227.09375 270.9375 233.234375 267.128906 236.964844 Z M 267.128906 236.964844 " fill-opacity="1" fill-rule="nonzero"/></g></svg>