<svg xmlns="http://www.w3.org/2000/svg" xmlns:xlink="http://www.w3.org/1999/xlink" width="500" zoomAndPan="magnify" viewBox="0 0 375 374.999991" height="500" preserveAspectRatio="xMidYMid meet" version="1.0"><defs><clipPath id="54d4cccf24"><path d="M 68.800781 283 L 305 283 L 305 305.191406 L 68.800781 305.191406 Z M 68.800781 283 " clip-rule="nonzero"/></clipPath><clipPath id="33eb278d07"><path d="M 137 69.691406 L 179 69.691406 L 179 111 L 137 111 Z M 137 69.691406 " clip-rule="nonzero"/></clipPath><clipPath id="4d5e4098cd"><path d="M 295 104 L 306.550781 104 L 306.550781 116 L 295 116 Z M 295 104 " clip-rule="nonzero"/></clipPath></defs><rect x="-37.5" width="450" fill="#ffffff" y="-37.499999" height="449.999989" fill-opacity="1"/><rect x="-37.5" width="450" fill="#fd8469" y="-37.499999" height="449.999989" fill-opacity="1"/><path fill="#fbeb9d" d="M 72.441406 286.808594 L 301.109375 286.808594 L 301.109375 301.527344 L 72.441406 301.527344 Z M 72.441406 286.808594 " fill-opacity="1" fill-rule="nonzero"/><g clip-path="url(#54d4cccf24)"><path fill="#000000" d="M 304.78125 305.222656 L 68.738281 305.222656 L 68.738281 283.144531 L 304.78125 283.144531 Z M 76.109375 297.863281 L 297.371094 297.863281 L 297.371094 290.503906 L 76.109375 290.503906 Z M 76.109375 297.863281 " fill-opacity="1" fill-rule="nonzero"/></g><path fill="#7f7f7f" d="M 101.9375 146.949219 L 76.109375 146.949219 L 76.109375 286.808594 L 297.40625 286.808594 L 297.40625 146.949219 Z M 101.9375 146.949219 " fill-opacity="1" fill-rule="nonzero"/><path fill="#000000" d="M 301.078125 290.503906 L 72.441406 290.503906 L 72.441406 143.285156 L 105.609375 143.285156 L 105.609375 150.644531 L 79.816406 150.644531 L 79.816406 283.144531 L 293.703125 283.144531 L 293.703125 150.644531 L 212.585938 150.644531 L 212.585938 143.285156 L 301.078125 143.285156 Z M 301.078125 290.503906 " fill-opacity="1" fill-rule="nonzero"/><path fill="#4c4c4c" d="M 226.25 89.90625 C 226.25 84.835938 222.121094 80.714844 217.042969 80.714844 C 211.960938 80.714844 207.832031 84.835938 207.832031 89.90625 C 207.832031 94.976562 211.960938 99.097656 217.042969 99.097656 C 222.121094 99.097656 226.25 94.976562 226.25 89.90625 Z M 226.25 89.90625 " fill-opacity="1" fill-rule="nonzero"/><path fill="#000000" d="M 217.007812 102.792969 C 209.898438 102.792969 204.097656 97.003906 204.097656 89.90625 C 204.097656 82.808594 209.898438 77.019531 217.007812 77.019531 C 224.121094 77.019531 229.921875 82.808594 229.921875 89.90625 C 229.921875 97.003906 224.15625 102.792969 217.007812 102.792969 Z M 217.007812 84.378906 C 213.960938 84.378906 211.46875 86.863281 211.46875 89.90625 C 211.46875 92.945312 213.960938 95.433594 217.007812 95.433594 C 220.058594 95.433594 222.546875 92.945312 222.546875 89.90625 C 222.546875 86.863281 220.089844 84.378906 217.007812 84.378906 Z M 217.007812 84.378906 " fill-opacity="1" fill-rule="nonzero"/><path fill="#f8cf52" d="M 174.597656 89.90625 C 174.597656 80.746094 167.160156 73.355469 158.015625 73.355469 C 148.839844 73.355469 141.429688 80.78125 141.429688 89.90625 C 141.429688 99.0625 148.871094 106.457031 158.015625 106.457031 C 167.191406 106.457031 174.597656 99.0625 174.597656 89.90625 Z M 174.597656 89.90625 " fill-opacity="1" fill-rule="nonzero"/><g clip-path="url(#33eb278d07)"><path fill="#000000" d="M 158.015625 110.152344 C 146.839844 110.152344 137.726562 101.058594 137.726562 89.90625 C 137.726562 78.75 146.839844 69.660156 158.015625 69.660156 C 169.191406 69.660156 178.300781 78.75 178.300781 89.90625 C 178.300781 101.058594 169.191406 110.152344 158.015625 110.152344 Z M 158.015625 77.019531 C 150.902344 77.019531 145.101562 82.808594 145.101562 89.90625 C 145.101562 97.003906 150.902344 102.792969 158.015625 102.792969 C 165.128906 102.792969 170.929688 97.003906 170.929688 89.90625 C 170.929688 82.808594 165.128906 77.019531 158.015625 77.019531 Z M 158.015625 77.019531 " fill-opacity="1" fill-rule="nonzero"/></g><path fill="#97eefb" d="M 109.3125 117.511719 C 109.3125 111.425781 104.363281 106.457031 98.234375 106.457031 C 92.136719 106.457031 87.15625 111.394531 87.15625 117.511719 C 87.15625 123.59375 92.105469 128.566406 98.234375 128.566406 C 104.363281 128.566406 109.3125 123.59375 109.3125 117.511719 Z M 109.3125 117.511719 " fill-opacity="1" fill-rule="nonzero"/><path fill="#000000" d="M 98.234375 132.230469 C 90.105469 132.230469 83.484375 125.621094 83.484375 117.511719 C 83.484375 109.398438 90.105469 102.792969 98.234375 102.792969 C 106.363281 102.792969 112.984375 109.398438 112.984375 117.511719 C 112.984375 125.621094 106.394531 132.230469 98.234375 132.230469 Z M 98.234375 110.152344 C 94.167969 110.152344 90.859375 113.453125 90.859375 117.511719 C 90.859375 121.566406 94.167969 124.871094 98.234375 124.871094 C 102.296875 124.871094 105.609375 121.566406 105.609375 117.511719 C 105.609375 113.453125 102.296875 110.152344 98.234375 110.152344 Z M 98.234375 110.152344 " fill-opacity="1" fill-rule="nonzero"/><path fill="#000000" d="M 132.515625 132.230469 L 137.761719 126.996094 L 142.972656 132.230469 L 137.761719 137.429688 C 132.515625 132.230469 137.726562 137.429688 132.515625 132.230469 Z M 132.515625 132.230469 " fill-opacity="1" fill-rule="nonzero"/><path fill="#000000" d="M 214.714844 117.511719 L 219.960938 112.277344 L 225.171875 117.511719 L 219.960938 122.710938 C 214.714844 117.511719 219.960938 122.710938 214.714844 117.511719 Z M 214.714844 117.511719 " fill-opacity="1" fill-rule="nonzero"/><g clip-path="url(#4d5e4098cd)"><path fill="#000000" d="M 295.832031 110.152344 L 301.078125 104.917969 L 306.289062 110.152344 L 301.078125 115.351562 C 295.832031 110.152344 301.078125 115.351562 295.832031 110.152344 Z M 295.832031 110.152344 " fill-opacity="1" fill-rule="nonzero"/></g><path fill="#000000" d="M 257.914062 80.714844 L 263.15625 75.480469 L 268.367188 80.714844 L 263.15625 85.914062 C 257.914062 80.714844 263.125 85.882812 257.914062 80.714844 Z M 257.914062 80.714844 " fill-opacity="1" fill-rule="nonzero"/><path fill="#000000" d="M 184.136719 117.511719 L 189.378906 112.277344 L 194.589844 117.511719 L 189.378906 122.710938 C 184.136719 117.511719 189.378906 122.710938 184.136719 117.511719 Z M 184.136719 117.511719 " fill-opacity="1" fill-rule="nonzero"/><path fill="#000000" d="M 78.242188 88.074219 L 83.484375 82.839844 L 88.695312 88.074219 L 83.484375 93.273438 C 78.242188 88.074219 83.484375 93.242188 78.242188 88.074219 Z M 78.242188 88.074219 " fill-opacity="1" fill-rule="nonzero"/><path fill="#8db3f3" d="M 118.492188 148.675781 L 143.511719 155.078125 L 138.015625 176.464844 L 113 170.0625 Z M 118.492188 148.675781 " fill-opacity="1" fill-rule="nonzero"/><path fill="#000000" d="M 140.644531 180.964844 L 108.523438 172.722656 L 115.867188 144.199219 L 148.019531 152.410156 Z M 117.472656 167.421875 L 135.335938 172.003906 L 139.003906 157.742188 L 121.144531 153.164062 Z M 117.472656 167.421875 " fill-opacity="1" fill-rule="nonzero"/><path fill="#8db3f3" d="M 231.894531 181.503906 L 256.910156 187.902344 L 253.246094 202.160156 L 228.230469 195.761719 Z M 231.894531 181.503906 " fill-opacity="1" fill-rule="nonzero"/><path fill="#000000" d="M 255.878906 206.640625 L 223.726562 198.398438 L 229.234375 177.007812 L 261.386719 185.21875 Z M 232.707031 193.101562 L 250.570312 197.679688 L 252.40625 190.546875 L 234.542969 185.96875 Z M 232.707031 193.101562 " fill-opacity="1" fill-rule="nonzero"/><path fill="#ffffff" d="M 228.21875 195.75 L 137.988281 176.484375 L 143.496094 155.09375 L 231.890625 181.488281 Z M 228.21875 195.75 " fill-opacity="1" fill-rule="nonzero"/><path fill="#000000" d="M 230.90625 200.097656 L 133.464844 179.265625 L 140.875 150.449219 L 236.347656 179.003906 Z M 142.546875 173.671875 L 225.5625 191.433594 L 227.464844 184.039062 L 146.152344 159.738281 Z M 142.546875 173.671875 " fill-opacity="1" fill-rule="nonzero"/><path fill="#000000" d="M 167.335938 149.296875 L 169.667969 142.316406 L 220.90625 159.359375 L 218.578125 166.339844 Z M 167.335938 149.296875 " fill-opacity="1" fill-rule="nonzero"/><path fill="#000000" d="M 189.03125 170.535156 L 193.617188 152.695312 L 200.757812 154.527344 L 196.171875 172.363281 Z M 189.03125 170.535156 " fill-opacity="1" fill-rule="nonzero"/><path fill="#ffffff" d="M 194.199219 205.855469 L 175.746094 205.855469 L 175.746094 184.039062 C 175.746094 181.257812 178.367188 179.328125 180.792969 180.375 L 191.871094 185.117188 C 193.28125 185.707031 194.199219 187.179688 194.199219 188.78125 Z M 194.199219 205.855469 " fill-opacity="1" fill-rule="nonzero"/><path fill="#000000" d="M 197.902344 209.519531 L 172.074219 209.519531 L 172.074219 184.039062 C 172.074219 181.421875 173.355469 179.003906 175.484375 177.597656 C 177.515625 176.253906 180.039062 176.027344 182.269531 176.972656 L 193.3125 181.71875 C 196.066406 182.894531 197.867188 185.675781 197.867188 188.75 L 197.867188 209.519531 Z M 179.449219 202.160156 L 190.527344 202.160156 L 190.527344 188.78125 L 179.382812 183.777344 Z M 179.449219 202.160156 " fill-opacity="1" fill-rule="nonzero"/><path fill="#8db3f3" d="M 172.074219 205.855469 L 201.574219 205.855469 L 201.574219 220.574219 L 172.074219 220.574219 Z M 172.074219 205.855469 " fill-opacity="1" fill-rule="nonzero"/><path fill="#000000" d="M 205.277344 224.238281 L 168.40625 224.238281 L 168.40625 202.160156 L 205.277344 202.160156 Z M 175.777344 216.878906 L 197.902344 216.878906 L 197.902344 209.519531 L 175.777344 209.519531 Z M 175.777344 216.878906 " fill-opacity="1" fill-rule="nonzero"/><path fill="#000000" d="M 183.152344 216.878906 L 190.527344 216.878906 L 190.527344 275.753906 L 183.152344 275.753906 Z M 183.152344 216.878906 " fill-opacity="1" fill-rule="nonzero"/><path fill="#000000" d="M 141.308594 273.738281 L 170.417969 215.636719 L 177.015625 218.929688 L 147.90625 277.027344 Z M 141.308594 273.738281 " fill-opacity="1" fill-rule="nonzero"/><path fill="#8a7de2" d="M 227.398438 272.089844 L 201.574219 220.574219 Z M 227.398438 272.089844 " fill-opacity="1" fill-rule="nonzero"/><path fill="#000000" d="M 196.640625 218.90625 L 203.238281 215.613281 L 232.347656 273.714844 L 225.75 277.007812 Z M 196.640625 218.90625 " fill-opacity="1" fill-rule="nonzero"/><path fill="#000000" d="M 197.902344 209.519531 L 212.648438 209.519531 L 212.648438 216.878906 L 197.902344 216.878906 Z M 197.902344 209.519531 " fill-opacity="1" fill-rule="nonzero"/><path fill="#000000" d="M 153.625 250.011719 L 219.992188 250.011719 L 219.992188 257.371094 L 153.625 257.371094 Z M 153.625 250.011719 " fill-opacity="1" fill-rule="nonzero"/><path fill="#f56d28" d="M 245.753906 113.816406 C 245.753906 103.640625 254.011719 95.398438 264.203125 95.398438 C 274.398438 95.398438 282.65625 103.640625 282.65625 113.816406 C 282.65625 123.988281 274.398438 132.230469 264.203125 132.230469 C 254.011719 132.230469 245.753906 123.988281 245.753906 113.816406 Z M 245.753906 113.816406 " fill-opacity="1" fill-rule="nonzero"/><path fill="#000000" d="M 264.203125 135.925781 C 252.011719 135.925781 242.082031 126.015625 242.082031 113.847656 C 242.082031 101.679688 252.011719 91.769531 264.203125 91.769531 C 276.398438 91.769531 286.328125 101.679688 286.328125 113.847656 C 286.328125 126.015625 276.398438 135.925781 264.203125 135.925781 Z M 264.203125 99.097656 C 256.078125 99.097656 249.457031 105.703125 249.457031 113.816406 C 249.457031 121.925781 256.078125 128.535156 264.203125 128.535156 C 272.332031 128.535156 278.953125 121.925781 278.953125 113.816406 C 278.953125 105.703125 272.332031 99.097656 264.203125 99.097656 Z M 264.203125 99.097656 " fill-opacity="1" fill-rule="nonzero"/><path fill="#000000" d="M 238.378906 110.152344 L 290 110.152344 L 290 117.511719 L 238.378906 117.511719 Z M 238.378906 110.152344 " fill-opacity="1" fill-rule="nonzero"/><path fill="#000000" d="M 132.976562 205.855469 L 90.859375 205.855469 L 90.859375 198.496094 L 129.894531 198.496094 L 142.511719 185.902344 L 147.722656 191.136719 Z M 132.976562 205.855469 " fill-opacity="1" fill-rule="nonzero"/><path fill="#000000" d="M 135.136719 220.574219 L 116.6875 220.574219 L 116.6875 213.214844 L 135.136719 213.214844 Z M 109.3125 220.574219 L 90.859375 220.574219 L 90.859375 213.214844 L 109.3125 213.214844 Z M 109.3125 220.574219 " fill-opacity="1" fill-rule="nonzero"/><path fill="#000000" d="M 90.859375 227.933594 L 135.105469 227.933594 L 135.105469 235.292969 L 90.859375 235.292969 Z M 90.859375 227.933594 " fill-opacity="1" fill-rule="nonzero"/><path fill="#000000" d="M 105.609375 242.652344 L 135.105469 242.652344 L 135.105469 250.011719 L 105.609375 250.011719 Z M 105.609375 242.652344 " fill-opacity="1" fill-rule="nonzero"/><path fill="#000000" d="M 90.859375 257.371094 L 124.058594 257.371094 L 124.058594 264.730469 L 90.859375 264.730469 Z M 90.859375 257.371094 " fill-opacity="1" fill-rule="nonzero"/><path fill="#d2d2d2" d="M 279.050781 242.652344 L 242.015625 242.652344 C 240.015625 242.652344 238.410156 241.050781 238.410156 239.054688 L 238.410156 231.53125 C 238.410156 229.535156 240.015625 227.933594 242.015625 227.933594 L 279.085938 227.933594 C 281.082031 227.933594 282.691406 229.535156 282.691406 231.53125 L 282.691406 239.054688 C 282.65625 241.050781 281.019531 242.652344 279.050781 242.652344 Z M 279.050781 242.652344 " fill-opacity="1" fill-rule="nonzero"/><path fill="#000000" d="M 275.28125 246.316406 L 245.785156 246.316406 C 239.691406 246.316406 234.707031 241.378906 234.707031 235.261719 C 234.707031 229.175781 239.65625 224.207031 245.785156 224.207031 L 275.28125 224.207031 C 281.378906 224.207031 286.359375 229.144531 286.359375 235.261719 C 286.328125 241.378906 281.378906 246.316406 275.28125 246.316406 Z M 245.753906 231.597656 C 243.722656 231.597656 242.050781 233.234375 242.050781 235.292969 C 242.050781 237.320312 243.6875 238.957031 245.753906 238.957031 L 275.25 238.957031 C 277.28125 238.957031 278.953125 237.320312 278.953125 235.292969 C 278.953125 233.265625 277.316406 231.597656 275.25 231.597656 Z M 245.753906 231.597656 " fill-opacity="1" fill-rule="nonzero"/><path fill="#000000" d="M 271.578125 261.035156 L 271.578125 253.675781 L 278.953125 253.675781 L 278.953125 261.035156 C 271.578125 261.035156 278.953125 261.035156 271.578125 261.035156 Z M 256.832031 261.035156 L 256.832031 253.675781 L 264.203125 253.675781 L 264.203125 261.035156 C 256.832031 261.035156 264.203125 261.035156 256.832031 261.035156 Z M 242.082031 261.035156 L 242.082031 253.675781 L 249.457031 253.675781 L 249.457031 261.035156 C 242.082031 261.035156 249.457031 261.035156 242.082031 261.035156 Z M 242.082031 261.035156 " fill-opacity="1" fill-rule="nonzero"/></svg>