<svg xmlns="http://www.w3.org/2000/svg" xmlns:xlink="http://www.w3.org/1999/xlink" width="500" zoomAndPan="magnify" viewBox="0 0 375 374.999991" height="500" preserveAspectRatio="xMidYMid meet" version="1.0"><defs><clipPath id="f7b6cc2dd8"><path d="M 61 37.5 L 314 37.5 L 314 337.5 L 61 337.5 Z M 61 37.5 " clip-rule="nonzero"/></clipPath></defs><rect x="-37.5" width="450" fill="#ffffff" y="-37.499999" height="449.999989" fill-opacity="1"/><rect x="-37.5" width="450" fill="#e6f2f5" y="-37.499999" height="449.999989" fill-opacity="1"/><g clip-path="url(#f7b6cc2dd8)"><path fill="#687b84" d="M 296.679688 153.234375 L 312.765625 125.375 C 314.101562 123.058594 313.308594 120.101562 310.992188 118.765625 L 251.542969 84.441406 C 242.945312 57.257812 217.488281 37.5 187.5 37.5 C 157.511719 37.5 132.054688 57.257812 123.457031 84.441406 L 64.007812 118.765625 C 61.691406 120.101562 60.898438 123.0625 62.234375 125.375 L 78.320312 153.234375 L 62.234375 181.09375 C 60.898438 183.410156 61.691406 186.367188 64.007812 187.703125 L 79.070312 196.398438 L 79.070312 272.851562 C 79.070312 274.582031 79.992188 276.179688 81.488281 277.042969 L 185.082031 336.851562 C 185.828125 337.285156 186.664062 337.5 187.5 337.5 C 188.335938 337.5 189.171875 337.285156 189.917969 336.851562 L 293.511719 277.042969 C 295.007812 276.179688 295.929688 274.582031 295.929688 272.851562 L 295.929688 196.398438 L 310.992188 187.703125 C 313.308594 186.367188 314.101562 183.40625 312.765625 181.09375 Z M 187.5 207.457031 L 93.585938 153.234375 L 127.058594 133.90625 C 137.949219 156.320312 160.949219 171.808594 187.5 171.808594 C 214.050781 171.808594 237.050781 156.320312 247.941406 133.90625 L 281.414062 153.234375 Z M 301.964844 124.726562 L 289.320312 146.625 L 251.558594 124.820312 C 253.570312 118.453125 254.65625 111.679688 254.65625 104.65625 C 254.65625 102.125 254.507812 99.628906 254.234375 97.167969 Z M 187.5 47.175781 C 219.191406 47.175781 244.976562 72.960938 244.976562 104.65625 C 244.976562 136.347656 219.195312 162.132812 187.5 162.132812 C 155.804688 162.132812 130.023438 136.347656 130.023438 104.65625 C 130.023438 72.960938 155.808594 47.175781 187.5 47.175781 Z M 120.765625 97.167969 C 120.492188 99.628906 120.34375 102.125 120.34375 104.65625 C 120.34375 111.679688 121.429688 118.453125 123.441406 124.820312 L 85.679688 146.625 L 73.035156 124.726562 Z M 85.679688 159.84375 L 180.890625 214.8125 L 168.246094 236.710938 L 73.035156 181.742188 Z M 88.746094 201.984375 L 167.597656 247.511719 C 168.339844 247.941406 169.175781 248.160156 170.019531 248.160156 C 170.4375 248.160156 170.859375 248.105469 171.269531 247.996094 C 172.511719 247.664062 173.566406 246.851562 174.210938 245.742188 L 182.660156 231.101562 L 182.660156 324.28125 L 88.746094 270.058594 Z M 286.253906 270.058594 L 192.339844 324.28125 L 192.339844 231.101562 L 200.789062 245.742188 C 201.433594 246.851562 202.488281 247.664062 203.730469 247.996094 C 204.140625 248.105469 204.5625 248.160156 204.980469 248.160156 C 205.824219 248.160156 206.660156 247.941406 207.402344 247.511719 L 286.253906 201.984375 Z M 206.753906 236.710938 L 194.109375 214.8125 L 289.320312 159.84375 L 301.964844 181.742188 Z M 169.378906 133.203125 C 172.125 135.945312 175.730469 137.320312 179.335938 137.320312 C 182.941406 137.320312 186.546875 135.945312 189.292969 133.203125 C 197.054688 125.4375 204.882812 117.496094 212.457031 109.816406 C 217.015625 105.191406 221.574219 100.570312 226.144531 95.957031 C 231.597656 90.453125 231.566406 81.535156 226.078125 76.078125 C 223.421875 73.4375 219.902344 71.984375 216.160156 71.984375 C 216.140625 71.984375 216.121094 71.984375 216.101562 71.984375 C 212.34375 72 208.820312 73.476562 206.179688 76.144531 L 179.296875 103.292969 L 168.8125 92.804688 C 163.324219 87.316406 154.390625 87.316406 148.898438 92.808594 C 146.238281 95.464844 144.773438 99.003906 144.773438 102.765625 C 144.773438 106.527344 146.238281 110.0625 148.898438 112.722656 Z M 155.742188 99.648438 C 156.601562 98.789062 157.726562 98.359375 158.855469 98.359375 C 159.984375 98.359375 161.109375 98.789062 161.96875 99.648438 L 175.894531 113.574219 C 176.800781 114.480469 178.03125 114.992188 179.316406 114.992188 C 179.320312 114.992188 179.324219 114.992188 179.328125 114.992188 C 180.613281 114.988281 181.847656 114.472656 182.753906 113.558594 L 213.054688 82.953125 C 213.875 82.125 214.96875 81.664062 216.140625 81.660156 C 216.144531 81.660156 216.152344 81.660156 216.15625 81.660156 C 217.328125 81.660156 218.425781 82.113281 219.253906 82.9375 C 220.96875 84.640625 220.972656 87.425781 219.269531 89.144531 C 214.695312 93.761719 210.128906 98.390625 205.566406 103.019531 C 198.003906 110.691406 190.1875 118.617188 182.449219 126.359375 C 180.734375 128.074219 177.9375 128.074219 176.222656 126.355469 L 155.742188 105.878906 C 154.910156 105.046875 154.453125 103.941406 154.453125 102.761719 C 154.453125 101.585938 154.910156 100.480469 155.742188 99.648438 Z M 155.742188 99.648438 " fill-opacity="1" fill-rule="nonzero"/></g></svg>