<svg xmlns="http://www.w3.org/2000/svg" xmlns:xlink="http://www.w3.org/1999/xlink" width="500" zoomAndPan="magnify" viewBox="0 0 375 374.999991" height="500" preserveAspectRatio="xMidYMid meet" version="1.0"><defs><clipPath id="1c31168fbd"><path d="M 60 65.601562 L 266 65.601562 L 266 309.351562 L 60 309.351562 Z M 60 65.601562 " clip-rule="nonzero"/></clipPath></defs><rect x="-37.5" width="450" fill="#ffffff" y="-37.499999" height="449.999989" fill-opacity="1"/><rect x="-37.5" width="450" fill="#e6f2f5" y="-37.499999" height="449.999989" fill-opacity="1"/><path fill="#687b84" d="M 172.863281 230.027344 L 193.234375 250.410156 L 167.378906 255.898438 Z M 266.460938 163.027344 L 275.820312 172.394531 L 200.957031 247.253906 L 191.59375 237.894531 Z M 250.863281 147.4375 L 261.023438 157.578125 L 186.144531 232.460938 L 176 222.320312 Z M 262.609375 135.671875 L 287.582031 160.628906 L 281.25 166.980469 L 256.277344 142.007812 Z M 299.0625 124.191406 C 306.3125 131.371094 306.914062 141.300781 301.78125 146.414062 L 293.011719 155.203125 L 268.0625 130.261719 L 276.839844 121.480469 C 283.332031 114.96875 293.335938 118.53125 299.0625 124.191406 Z M 271.414062 116.046875 L 167.855469 219.601562 L 166.8125 221.523438 L 158.628906 260.058594 L 163.183594 264.609375 L 201.753906 256.441406 L 203.65625 255.402344 L 307.230469 151.847656 C 315.910156 143.167969 314.496094 127.96875 304.496094 118.78125 C 295.0625 110.121094 280.917969 106.539062 271.414062 116.046875 Z M 271.414062 116.046875 " fill-opacity="1" fill-rule="evenodd"/><g clip-path="url(#1c31168fbd)"><path fill="#687b84" d="M 79.003906 239.863281 L 79.003906 266.777344 C 75.105469 266.125 71.648438 263.757812 69.621094 260.167969 C 67.222656 255.933594 67.222656 250.710938 69.621094 246.460938 C 71.648438 242.882812 75.105469 240.519531 79.003906 239.863281 Z M 79.003906 180.859375 L 79.003906 207.753906 C 75.105469 207.101562 71.648438 204.734375 69.621094 201.15625 C 67.222656 196.921875 67.222656 191.699219 69.621094 187.453125 C 71.648438 183.875 75.105469 181.507812 79.003906 180.859375 Z M 79.003906 121.816406 L 79.003906 148.746094 C 75.105469 148.089844 71.648438 145.726562 69.621094 142.148438 C 67.222656 137.917969 67.222656 132.65625 69.621094 128.429688 C 71.648438 124.828125 75.105469 122.46875 79.003906 121.816406 Z M 79.003906 65.605469 L 79.003906 114.089844 C 72.324219 114.792969 66.324219 118.695312 62.953125 124.652344 C 59.214844 131.230469 59.214844 139.324219 62.953125 145.921875 C 66.324219 151.859375 72.324219 155.765625 79.003906 156.46875 L 79.003906 173.113281 C 72.324219 173.804688 66.324219 177.699219 62.953125 183.660156 C 59.214844 190.238281 59.214844 198.371094 62.953125 204.964844 C 66.324219 210.90625 72.324219 214.785156 79.003906 215.472656 L 79.003906 232.140625 C 72.324219 232.84375 66.324219 236.742188 62.953125 242.703125 C 59.214844 249.277344 59.214844 257.375 62.953125 263.96875 C 66.324219 269.914062 72.324219 273.8125 79.003906 274.511719 L 79.003906 309.453125 L 265.488281 309.453125 L 265.488281 212.832031 L 257.816406 212.832031 L 257.816406 301.785156 L 86.691406 301.785156 L 86.691406 239.671875 L 101.4375 239.671875 L 101.4375 232 L 86.691406 232 L 86.691406 180.660156 L 101.4375 180.660156 L 101.4375 172.957031 L 86.691406 172.957031 L 86.691406 121.617188 L 101.4375 121.617188 L 101.4375 113.945312 L 86.691406 113.945312 L 86.691406 73.28125 L 257.816406 73.28125 L 257.816406 109.679688 L 265.488281 109.679688 L 265.488281 65.605469 Z M 79.003906 65.605469 " fill-opacity="1" fill-rule="evenodd"/></g><path fill="#687b84" d="M 120.277344 113.945312 L 224.253906 113.945312 L 224.253906 121.617188 L 120.277344 121.617188 Z M 120.277344 113.945312 " fill-opacity="1" fill-rule="nonzero"/><path fill="#687b84" d="M 120.277344 172.957031 L 186.035156 172.957031 L 186.035156 180.664062 L 120.277344 180.664062 Z M 120.277344 172.957031 " fill-opacity="1" fill-rule="nonzero"/><path fill="#687b84" d="M 120.277344 232 L 151.472656 232 L 151.472656 239.675781 L 120.277344 239.675781 Z M 120.277344 232 " fill-opacity="1" fill-rule="nonzero"/><path fill="#687b84" d="M 120.277344 143.46875 L 212.28125 143.46875 L 212.28125 151.140625 L 120.277344 151.140625 Z M 120.277344 143.46875 " fill-opacity="1" fill-rule="nonzero"/><path fill="#687b84" d="M 120.277344 202.476562 L 151.472656 202.476562 L 151.472656 210.152344 L 120.277344 210.152344 Z M 120.277344 202.476562 " fill-opacity="1" fill-rule="nonzero"/></svg>