<svg xmlns="http://www.w3.org/2000/svg" xmlns:xlink="http://www.w3.org/1999/xlink" width="500" zoomAndPan="magnify" viewBox="0 0 375 374.999991" height="500" preserveAspectRatio="xMidYMid meet" version="1.0"><defs><clipPath id="e6de82356c"><path d="M 56.25 65 L 318 65 L 318 317.90625 L 56.25 317.90625 Z M 56.25 65 " clip-rule="nonzero"/></clipPath></defs><rect x="-37.5" width="450" fill="#ffffff" y="-37.499999" height="449.999989" fill-opacity="1"/><rect x="-37.5" width="450" fill="#e6f2f5" y="-37.499999" height="449.999989" fill-opacity="1"/><g clip-path="url(#e6de82356c)"><path fill="#687b84" d="M 265.566406 69.089844 C 230.734375 57.070312 190.445312 73.621094 173.933594 106.316406 L 150.058594 91.992188 C 147.578125 90.414062 144.011719 92.003906 143.535156 94.898438 C 142.640625 99.515625 141.566406 103.789062 140.617188 108.34375 C 124.273438 114.84375 111.269531 126.246094 103.488281 139.945312 L 82.667969 139.945312 C 67.984375 139.933594 56.246094 151.667969 56.246094 166.09375 L 56.246094 217.820312 C 56.246094 220.230469 58.199219 222.179688 60.609375 222.179688 L 78.308594 222.179688 L 78.308594 297.222656 C 78.308594 308.742188 87.675781 318.109375 99.195312 318.109375 L 216.214844 318.109375 C 228.628906 318.234375 239.046875 307.757812 238.957031 295.367188 C 238.957031 295.367188 238.957031 284.339844 238.957031 284.339844 C 238.957031 281.929688 237.007812 279.976562 234.597656 279.976562 L 224.253906 279.976562 L 224.253906 215.84375 C 271.050781 227.484375 318.648438 189.597656 317.871094 141.511719 C 317.890625 109.140625 296.605469 79.027344 265.566406 69.089844 Z M 78.304688 213.460938 L 64.96875 213.460938 L 64.96875 166.09375 C 64.96875 157.945312 70.585938 151.085938 78.304688 149.179688 Z M 241.5625 73.929688 C 245.898438 73.929688 250.226562 74.351562 254.5 75.191406 C 241.394531 88.417969 239.929688 112.914062 252.285156 126.386719 C 255.683594 130.25 257.214844 135.964844 256.375 141.671875 C 254.25 160.117188 229.464844 160.371094 225.105469 143.914062 C 221.804688 124.40625 202.292969 108.902344 182.480469 111.445312 L 181.433594 110.816406 C 192.933594 88.292969 216.121094 73.929688 241.5625 73.929688 Z M 145.894531 115.664062 C 147.335938 115.140625 148.394531 113.902344 148.6875 112.398438 C 149.351562 109.03125 150.082031 105.882812 150.816406 102.617188 L 184.085938 122.578125 L 154.21875 149.125 L 151.949219 142.316406 C 151.289062 140.328125 149.253906 139.070312 147.207031 139.375 C 131.964844 140.65625 107.628906 157.40625 107.050781 185.53125 C 96.800781 156.960938 115.320312 126.671875 145.894531 115.664062 Z M 111.75 282.621094 C 111.03125 283.25 111.539062 296.128906 111.394531 297.207031 C 111.386719 303.792969 105.972656 309.28125 99.195312 309.390625 C 92.488281 309.390625 87.03125 303.929688 87.03125 297.222656 L 87.03125 148.664062 L 99.378906 148.664062 C 89.148438 172.914062 100.902344 199.960938 113.578125 212.125 C 114.421875 213.023438 115.578125 213.480469 116.734375 213.480469 C 119.921875 213.574219 122.195312 209.828125 120.5625 207.035156 C 109.953125 188.339844 116.679688 156.316406 144.898438 148.734375 L 148.042969 158.15625 C 148.910156 161.0625 152.863281 162.109375 155.070312 160.035156 C 155.070312 160.035156 165.835938 150.46875 165.835938 150.46875 C 169.15625 179.035156 188.164062 203.28125 215.535156 213.203125 L 215.535156 279.957031 L 115.769531 279.957031 C 113.960938 279.957031 112.410156 281.054688 111.75 282.621094 Z M 230.238281 288.699219 L 230.238281 295.367188 C 230.296875 302.972656 223.894531 309.457031 216.214844 309.390625 L 116.207031 309.390625 C 120.617188 303.636719 120.246094 295.554688 120.128906 288.699219 Z M 287.441406 191.058594 C 285.695312 187.316406 283.800781 183.617188 281.410156 180.25 C 267.121094 159.792969 283.75 131.332031 308.6875 134.171875 C 311.207031 155.488281 303.09375 176.671875 287.441406 191.058594 Z M 274.28125 185.277344 C 276.800781 188.964844 278.785156 192.664062 280.324219 196.820312 C 237.230469 228.035156 174.488281 196.285156 174.042969 143.171875 L 194.316406 125.152344 C 195.328125 124.253906 195.851562 122.9375 195.761719 121.59375 C 206.101562 125.25 214.652344 134.589844 216.511719 145.398438 C 217.765625 152.644531 222.976562 158.957031 230.453125 162.289062 C 245.515625 169.441406 262.992188 159.902344 265.003906 142.9375 C 266.207031 134.726562 263.902344 126.386719 258.835938 120.625 C 248.433594 109.160156 251.199219 86.761719 264.71875 78.03125 C 285.960938 85.773438 301.726562 103.445312 307.082031 125.253906 C 275.488281 124.503906 256.421875 159.15625 274.28125 185.277344 Z M 274.28125 185.277344 " fill-opacity="1" fill-rule="nonzero"/></g><path fill="#687b84" d="M 126.015625 191.660156 L 169.617188 191.660156 C 175.335938 191.566406 175.359375 183.035156 169.617188 182.9375 C 169.617188 182.9375 126.015625 182.9375 126.015625 182.9375 C 120.296875 183.03125 120.273438 191.5625 126.015625 191.660156 Z M 126.015625 191.660156 " fill-opacity="1" fill-rule="nonzero"/><path fill="#687b84" d="M 126.015625 217.820312 L 169.617188 217.820312 C 175.339844 217.730469 175.359375 209.195312 169.617188 209.101562 C 169.617188 209.101562 126.015625 209.101562 126.015625 209.101562 C 120.296875 209.191406 120.273438 217.726562 126.015625 217.820312 Z M 126.015625 217.820312 " fill-opacity="1" fill-rule="nonzero"/><path fill="#687b84" d="M 195.78125 235.261719 L 99.851562 235.261719 C 94.152344 235.347656 94.09375 243.886719 99.851562 243.984375 C 99.851562 243.984375 195.78125 243.984375 195.78125 243.984375 C 201.480469 243.898438 201.535156 235.359375 195.78125 235.261719 Z M 195.78125 235.261719 " fill-opacity="1" fill-rule="nonzero"/><path fill="#687b84" d="M 195.78125 261.425781 L 99.851562 261.425781 C 94.152344 261.511719 94.09375 270.046875 99.851562 270.144531 C 99.851562 270.144531 195.78125 270.144531 195.78125 270.144531 C 201.480469 270.058594 201.535156 261.523438 195.78125 261.425781 Z M 195.78125 261.425781 " fill-opacity="1" fill-rule="nonzero"/></svg>