<svg xmlns="http://www.w3.org/2000/svg" xmlns:xlink="http://www.w3.org/1999/xlink" width="500" zoomAndPan="magnify" viewBox="0 0 375 374.999991" height="500" preserveAspectRatio="xMidYMid meet" version="1.0"><defs><clipPath id="11883ad35d"><path d="M 110 26.570312 L 267 26.570312 L 267 205 L 110 205 Z M 110 26.570312 " clip-rule="nonzero"/></clipPath><clipPath id="123869df5d"><path d="M 110 26.570312 L 266 26.570312 L 266 119 L 110 119 Z M 110 26.570312 " clip-rule="nonzero"/></clipPath><clipPath id="52678c983f"><path d="M 198 311 L 306 311 L 306 348.320312 L 198 348.320312 Z M 198 311 " clip-rule="nonzero"/></clipPath><clipPath id="a7646eb2d9"><path d="M 69 311 L 177 311 L 177 348.320312 L 69 348.320312 Z M 69 311 " clip-rule="nonzero"/></clipPath><clipPath id="2b3dfed1a0"><path d="M 77 0 L 296 0 L 296 217 L 77 217 Z M 77 0 " clip-rule="nonzero"/></clipPath><clipPath id="5d95a81ead"><path d="M 164.894531 -26.425781 L 318.460938 78.445312 L 207.855469 240.410156 L 54.289062 135.535156 Z M 164.894531 -26.425781 " clip-rule="nonzero"/></clipPath><clipPath id="f9a2086b2e"><path d="M 214.445312 7.410156 L 268.914062 44.609375 C 282.054688 53.582031 291.089844 67.410156 294.039062 83.046875 C 296.984375 98.683594 293.597656 114.851562 284.625 127.992188 L 241.757812 190.761719 C 232.78125 203.902344 218.957031 212.941406 203.320312 215.886719 C 187.679688 218.835938 171.511719 215.449219 158.371094 206.472656 L 103.902344 169.277344 C 90.761719 160.300781 81.722656 146.476562 78.777344 130.835938 C 75.832031 115.199219 79.21875 99.03125 88.191406 85.890625 L 131.058594 23.121094 C 140.03125 9.980469 153.859375 0.941406 169.496094 -2.003906 C 185.136719 -4.949219 201.304688 -1.5625 214.445312 7.410156 Z M 214.445312 7.410156 " clip-rule="nonzero"/></clipPath><clipPath id="a82befb80b"><path d="M 0 0 L 219 0 L 219 217 L 0 217 Z M 0 0 " clip-rule="nonzero"/></clipPath><clipPath id="23461ae0b9"><path d="M 87.894531 -26.425781 L 241.460938 78.445312 L 130.855469 240.410156 L -22.710938 135.535156 Z M 87.894531 -26.425781 " clip-rule="nonzero"/></clipPath><clipPath id="788dc42fae"><path d="M 137.445312 7.410156 L 191.914062 44.609375 C 205.054688 53.582031 214.089844 67.410156 217.039062 83.046875 C 219.984375 98.683594 216.597656 114.851562 207.625 127.992188 L 164.757812 190.761719 C 155.78125 203.902344 141.957031 212.941406 126.320312 215.886719 C 110.679688 218.835938 94.511719 215.449219 81.371094 206.472656 L 26.902344 169.277344 C 13.761719 160.300781 4.722656 146.476562 1.777344 130.835938 C -1.167969 115.199219 2.21875 99.03125 11.191406 85.890625 L 54.058594 23.121094 C 63.03125 9.980469 76.859375 0.941406 92.496094 -2.003906 C 108.136719 -4.949219 124.304688 -1.5625 137.445312 7.410156 Z M 137.445312 7.410156 " clip-rule="nonzero"/></clipPath><clipPath id="978fc48a9c"><rect x="0" width="219" y="0" height="217"/></clipPath><clipPath id="f06049f9e2"><path d="M 101.707031 18 L 271.207031 18 L 271.207031 210.621094 L 101.707031 210.621094 Z M 101.707031 18 " clip-rule="nonzero"/></clipPath></defs><rect x="-37.5" width="450" fill="#ffffff" y="-37.499999" height="449.999989" fill-opacity="1"/><rect x="-37.5" width="450" fill="#f9b900" y="-37.499999" height="449.999989" fill-opacity="1"/><path fill="#f59880" d="M 264.089844 75.761719 L 264.089844 155.554688 C 264.097656 156.136719 264.027344 156.710938 263.882812 157.273438 C 263.734375 157.839844 263.515625 158.371094 263.222656 158.875 C 262.929688 159.378906 262.578125 159.835938 262.164062 160.246094 C 261.75 160.652344 261.285156 161 260.777344 161.285156 L 191.59375 201.183594 C 191.09375 201.480469 190.5625 201.707031 190 201.863281 C 189.4375 202.015625 188.863281 202.09375 188.28125 202.09375 C 187.699219 202.09375 187.125 202.015625 186.5625 201.863281 C 186.003906 201.707031 185.46875 201.480469 184.96875 201.183594 L 115.789062 161.285156 C 115.28125 161 114.816406 160.65625 114.402344 160.246094 C 113.988281 159.835938 113.632812 159.382812 113.339844 158.875 C 113.050781 158.371094 112.828125 157.839844 112.683594 157.273438 C 112.535156 156.710938 112.464844 156.140625 112.472656 155.554688 L 112.472656 75.761719 C 112.464844 75.179688 112.535156 74.605469 112.683594 74.042969 C 112.828125 73.480469 113.050781 72.945312 113.339844 72.441406 C 113.632812 71.9375 113.988281 71.480469 114.402344 71.070312 C 114.816406 70.660156 115.28125 70.316406 115.789062 70.03125 L 184.96875 30.136719 C 185.46875 29.839844 186.003906 29.613281 186.5625 29.457031 C 187.125 29.300781 187.699219 29.226562 188.28125 29.226562 C 188.863281 29.226562 189.4375 29.300781 190 29.457031 C 190.5625 29.613281 191.09375 29.839844 191.59375 30.136719 L 260.777344 70.03125 C 261.285156 70.316406 261.75 70.664062 262.164062 71.070312 C 262.578125 71.480469 262.929688 71.9375 263.222656 72.441406 C 263.515625 72.945312 263.734375 73.480469 263.878906 74.042969 C 264.027344 74.605469 264.097656 75.179688 264.089844 75.761719 Z M 264.089844 75.761719 " fill-opacity="1" fill-rule="evenodd"/><path fill="#937cb8" d="M 263.222656 72.441406 L 188.28125 115.65625 L 113.339844 72.441406 C 113.941406 71.417969 114.757812 70.617188 115.789062 70.03125 L 184.96875 30.136719 C 185.46875 29.839844 186.003906 29.613281 186.5625 29.457031 C 187.125 29.304688 187.699219 29.226562 188.28125 29.226562 C 188.863281 29.226562 189.4375 29.304688 190 29.457031 C 190.5625 29.613281 191.09375 29.839844 191.59375 30.136719 L 260.777344 70.03125 C 261.808594 70.617188 262.625 71.417969 263.222656 72.441406 Z M 263.222656 72.441406 " fill-opacity="1" fill-rule="evenodd"/><path fill="#e96f7b" d="M 264.089844 75.761719 L 264.089844 155.554688 C 264.097656 156.136719 264.027344 156.710938 263.882812 157.273438 C 263.734375 157.839844 263.515625 158.371094 263.222656 158.875 C 262.929688 159.378906 262.578125 159.835938 262.164062 160.246094 C 261.75 160.652344 261.285156 161 260.777344 161.285156 L 191.59375 201.183594 C 190.570312 201.78125 189.46875 202.085938 188.28125 202.089844 L 188.28125 115.65625 L 263.222656 72.441406 C 263.808594 73.472656 264.097656 74.578125 264.089844 75.761719 Z M 264.089844 75.761719 " fill-opacity="1" fill-rule="evenodd"/><path fill="#fbd96f" d="M 139.386719 87.460938 L 161.371094 100.140625 L 237.175781 56.421875 L 215.195312 43.746094 Z M 139.386719 87.460938 " fill-opacity="1" fill-rule="evenodd"/><path fill="#eb9e65" d="M 161.371094 100.136719 L 161.371094 128.835938 C 161.371094 129.128906 161.332031 129.414062 161.257812 129.695312 C 161.183594 129.972656 161.070312 130.238281 160.925781 130.492188 C 160.78125 130.742188 160.605469 130.972656 160.398438 131.175781 C 160.195312 131.382812 159.964844 131.558594 159.714844 131.703125 C 159.460938 131.847656 159.195312 131.957031 158.914062 132.035156 C 158.636719 132.109375 158.347656 132.148438 158.058594 132.148438 C 157.769531 132.148438 157.480469 132.109375 157.203125 132.035156 C 156.921875 131.960938 156.652344 131.851562 156.402344 131.707031 L 142.699219 123.800781 C 142.191406 123.515625 141.730469 123.167969 141.316406 122.761719 C 140.898438 122.351562 140.546875 121.894531 140.253906 121.390625 C 139.960938 120.886719 139.742188 120.351562 139.597656 119.789062 C 139.449219 119.226562 139.378906 118.652344 139.390625 118.070312 L 139.390625 87.460938 Z M 161.371094 100.136719 " fill-opacity="1" fill-rule="evenodd"/><path fill="#f1cbbc" d="M 340.535156 221.5625 L 337.417969 111.636719 C 337.277344 106.648438 333.714844 101.9375 328.929688 99.34375 C 318.710938 93.804688 302.921875 97.910156 303.042969 129.53125 L 303.269531 189.246094 C 303.300781 197.582031 300.496094 204.695312 295.230469 211.167969 L 290.636719 216.816406 C 296.5 209.53125 296.3125 201.863281 290.632812 196.191406 C 284.957031 190.519531 275.953125 190.820312 269.988281 196.191406 C 256.484375 212.140625 238.941406 225.300781 229.292969 233.984375 C 220.636719 241.777344 219.097656 252.714844 219.117188 264.355469 L 219.167969 298.988281 L 219.1875 313.339844 L 280.238281 313.867188 L 280.238281 297.320312 L 330.019531 247.601562 C 337.175781 240.453125 340.820312 231.671875 340.535156 221.5625 Z M 340.535156 221.5625 " fill-opacity="1" fill-rule="evenodd"/><path fill="#f6dccd" d="M 331.988281 207.136719 L 328.929688 99.34375 C 318.710938 93.804688 302.921875 97.914062 303.042969 129.53125 L 303.269531 189.246094 C 303.300781 197.585938 300.496094 204.699219 295.230469 211.167969 L 290.636719 216.816406 C 296.5 209.535156 296.3125 201.863281 290.632812 196.191406 C 284.957031 190.523438 275.953125 190.824219 269.988281 196.191406 C 256.484375 212.140625 238.941406 225.300781 229.292969 233.984375 C 220.636719 241.777344 219.097656 252.714844 219.117188 264.359375 L 219.167969 298.988281 L 259.949219 299.339844 C 260.714844 299.347656 261.476562 299.277344 262.234375 299.136719 C 262.988281 298.992188 263.722656 298.773438 264.433594 298.484375 C 265.144531 298.195312 265.820312 297.839844 266.464844 297.417969 C 267.105469 296.992188 267.699219 296.511719 268.242188 295.972656 C 268.789062 295.429688 269.277344 294.84375 269.707031 294.207031 C 270.136719 293.570312 270.496094 292.894531 270.792969 292.1875 C 271.089844 291.476562 271.3125 290.746094 271.460938 289.996094 C 271.613281 289.242188 271.6875 288.480469 271.6875 287.714844 C 271.6875 286.171875 271.984375 284.6875 272.574219 283.265625 C 273.164062 281.839844 274.007812 280.582031 275.097656 279.492188 L 321.46875 233.179688 C 328.628906 226.027344 332.273438 217.246094 331.988281 207.136719 Z M 331.988281 207.136719 " fill-opacity="1" fill-rule="evenodd"/><path fill="#e96f7b" d="M 302.972656 321.65625 L 302.828125 338.289062 C 302.820312 338.789062 302.769531 339.28125 302.664062 339.769531 C 302.5625 340.257812 302.414062 340.730469 302.21875 341.1875 C 302.023438 341.648438 301.785156 342.082031 301.503906 342.492188 C 301.222656 342.90625 300.902344 343.285156 300.546875 343.636719 C 300.191406 343.984375 299.804688 344.296875 299.390625 344.570312 C 298.972656 344.84375 298.53125 345.074219 298.070312 345.261719 C 297.609375 345.449219 297.132812 345.589844 296.640625 345.683594 C 296.152344 345.777344 295.65625 345.824219 295.160156 345.820312 L 208.644531 345.082031 C 208.269531 345.078125 207.898438 345.046875 207.527344 344.988281 C 207.082031 344.914062 206.644531 344.804688 206.21875 344.65625 C 205.792969 344.507812 205.382812 344.320312 204.988281 344.101562 C 204.59375 343.878906 204.222656 343.625 203.875 343.335938 C 203.527344 343.050781 203.207031 342.734375 202.914062 342.390625 C 202.621094 342.046875 202.363281 341.679688 202.136719 341.289062 C 201.910156 340.898438 201.71875 340.492188 201.5625 340.066406 C 201.410156 339.644531 201.292969 339.210938 201.214844 338.765625 C 201.136719 338.320312 201.101562 337.871094 201.101562 337.421875 L 201.246094 320.785156 C 201.25 320.285156 201.304688 319.792969 201.40625 319.304688 C 201.511719 318.816406 201.660156 318.34375 201.855469 317.886719 C 202.050781 317.425781 202.289062 316.992188 202.570312 316.582031 C 202.851562 316.167969 203.171875 315.789062 203.527344 315.4375 C 203.882812 315.089844 204.269531 314.777344 204.6875 314.503906 C 205.101562 314.230469 205.542969 314 206.003906 313.8125 C 206.46875 313.625 206.945312 313.484375 207.433594 313.390625 C 207.925781 313.296875 208.417969 313.25 208.917969 313.253906 L 219.1875 313.34375 L 280.238281 313.867188 L 295.429688 313.996094 C 295.929688 314 296.425781 314.054688 296.914062 314.15625 C 297.402344 314.257812 297.875 314.40625 298.335938 314.601562 C 298.796875 314.796875 299.234375 315.03125 299.644531 315.3125 C 300.058594 315.59375 300.441406 315.914062 300.789062 316.269531 C 301.140625 316.625 301.453125 317.011719 301.726562 317.425781 C 302 317.84375 302.230469 318.285156 302.417969 318.746094 C 302.605469 319.207031 302.746094 319.683594 302.839844 320.175781 C 302.933594 320.664062 302.976562 321.160156 302.972656 321.65625 Z M 302.972656 321.65625 " fill-opacity="1" fill-rule="evenodd"/><path fill="#f1cbbc" d="M 146.03125 233.984375 C 136.382812 225.300781 118.839844 212.140625 105.335938 196.191406 C 99.375 190.824219 90.367188 190.523438 84.691406 196.191406 C 79.015625 201.863281 78.828125 209.535156 84.691406 216.816406 L 80.097656 211.167969 C 74.832031 204.699219 72.023438 197.585938 72.054688 189.246094 L 72.28125 129.53125 C 72.394531 99.839844 58.480469 94.40625 48.320312 98.445312 C 42.601562 100.71875 38.066406 105.996094 37.90625 111.640625 L 34.789062 221.5625 C 34.503906 231.671875 38.148438 240.453125 45.308594 247.605469 L 95.085938 297.324219 L 95.085938 313.867188 L 156.136719 313.34375 L 156.160156 299.003906 L 156.210938 264.359375 C 156.226562 252.714844 154.6875 241.777344 146.03125 233.984375 Z M 146.03125 233.984375 " fill-opacity="1" fill-rule="evenodd"/><path fill="#f6dccd" d="M 146.03125 233.984375 C 136.382812 225.300781 118.839844 212.140625 105.335938 196.191406 C 99.375 190.824219 90.367188 190.523438 84.691406 196.191406 C 79.015625 201.863281 78.828125 209.535156 84.691406 216.816406 L 80.097656 211.167969 C 74.832031 204.699219 72.023438 197.585938 72.054688 189.246094 L 72.28125 129.53125 C 72.394531 99.839844 58.480469 94.40625 48.320312 98.445312 L 45.238281 207.136719 C 44.953125 217.246094 48.597656 226.027344 55.761719 233.179688 L 102.125 279.492188 C 103.21875 280.582031 104.058594 281.839844 104.648438 283.265625 C 105.242188 284.6875 105.535156 286.171875 105.535156 287.714844 C 105.535156 288.480469 105.613281 289.242188 105.761719 289.996094 C 105.914062 290.746094 106.136719 291.476562 106.433594 292.1875 C 106.726562 292.894531 107.089844 293.566406 107.519531 294.207031 C 107.949219 294.84375 108.4375 295.429688 108.980469 295.972656 C 109.527344 296.511719 110.121094 296.992188 110.761719 297.417969 C 111.402344 297.839844 112.082031 298.195312 112.792969 298.484375 C 113.503906 298.773438 114.238281 298.992188 114.992188 299.136719 C 115.746094 299.277344 116.507812 299.347656 117.277344 299.339844 L 156.160156 299.003906 L 156.210938 264.359375 C 156.226562 252.714844 154.6875 241.777344 146.03125 233.984375 Z M 146.03125 233.984375 " fill-opacity="1" fill-rule="evenodd"/><path fill="#e96f7b" d="M 174.21875 337.417969 C 174.222656 337.917969 174.175781 338.410156 174.082031 338.902344 C 173.988281 339.390625 173.847656 339.867188 173.660156 340.328125 C 173.472656 340.789062 173.242188 341.226562 172.964844 341.644531 C 172.691406 342.0625 172.382812 342.445312 172.03125 342.800781 C 171.679688 343.15625 171.300781 343.476562 170.886719 343.757812 C 170.476562 344.039062 170.039062 344.277344 169.582031 344.472656 C 169.121094 344.667969 168.648438 344.816406 168.160156 344.917969 C 167.671875 345.019531 167.179688 345.074219 166.679688 345.078125 L 80.167969 345.820312 C 79.75 345.824219 79.335938 345.792969 78.925781 345.734375 C 78.484375 345.664062 78.054688 345.554688 77.632812 345.40625 C 77.210938 345.261719 76.804688 345.078125 76.414062 344.863281 C 76.023438 344.644531 75.65625 344.394531 75.308594 344.113281 C 74.960938 343.832031 74.644531 343.519531 74.351562 343.183594 C 74.058594 342.847656 73.800781 342.484375 73.570312 342.101562 C 73.34375 341.71875 73.148438 341.316406 72.992188 340.902344 C 72.832031 340.484375 72.714844 340.054688 72.628906 339.617188 C 72.546875 339.179688 72.503906 338.738281 72.496094 338.289062 L 72.351562 321.65625 C 72.347656 321.160156 72.394531 320.664062 72.488281 320.175781 C 72.582031 319.6875 72.726562 319.210938 72.914062 318.75 C 73.101562 318.289062 73.332031 317.847656 73.605469 317.429688 C 73.878906 317.015625 74.191406 316.628906 74.542969 316.273438 C 74.890625 315.917969 75.273438 315.601562 75.683594 315.320312 C 76.097656 315.039062 76.53125 314.800781 76.992188 314.605469 C 77.453125 314.410156 77.925781 314.261719 78.414062 314.160156 C 78.902344 314.058594 79.394531 314.003906 79.894531 313.996094 L 95.085938 313.867188 L 156.136719 313.34375 L 166.40625 313.253906 C 166.859375 313.25 167.308594 313.289062 167.753906 313.367188 C 168.199219 313.445312 168.632812 313.558594 169.058594 313.714844 C 169.484375 313.867188 169.890625 314.058594 170.28125 314.285156 C 170.671875 314.511719 171.039062 314.769531 171.382812 315.0625 C 171.730469 315.355469 172.046875 315.675781 172.332031 316.023438 C 172.621094 316.371094 172.875 316.742188 173.097656 317.136719 C 173.320312 317.527344 173.503906 317.9375 173.652344 318.363281 C 173.804688 318.789062 173.914062 319.226562 173.984375 319.671875 C 174.046875 320.039062 174.078125 320.410156 174.082031 320.785156 Z M 174.21875 337.417969 " fill-opacity="1" fill-rule="evenodd"/><path fill="#f59880" d="M 302.972656 321.65625 L 302.828125 338.289062 C 302.820312 338.789062 302.769531 339.28125 302.664062 339.769531 C 302.5625 340.257812 302.414062 340.730469 302.21875 341.1875 C 302.023438 341.648438 301.785156 342.082031 301.503906 342.492188 C 301.222656 342.90625 300.902344 343.285156 300.546875 343.636719 C 300.191406 343.984375 299.804688 344.296875 299.390625 344.570312 C 298.972656 344.84375 298.53125 345.074219 298.070312 345.261719 C 297.609375 345.449219 297.132812 345.589844 296.640625 345.683594 C 296.152344 345.777344 295.65625 345.824219 295.160156 345.820312 L 208.644531 345.082031 C 208.269531 345.078125 207.898438 345.046875 207.527344 344.988281 C 207.464844 344.574219 207.433594 344.164062 207.4375 343.746094 L 207.578125 327.109375 C 207.582031 326.613281 207.636719 326.117188 207.742188 325.632812 C 207.84375 325.144531 207.992188 324.671875 208.1875 324.210938 C 208.382812 323.753906 208.621094 323.316406 208.902344 322.90625 C 209.183594 322.496094 209.503906 322.113281 209.859375 321.765625 C 210.214844 321.414062 210.601562 321.105469 211.019531 320.832031 C 211.4375 320.554688 211.875 320.324219 212.339844 320.140625 C 212.800781 319.953125 213.277344 319.808594 213.765625 319.714844 C 214.257812 319.621094 214.75 319.578125 215.25 319.578125 L 225.523438 319.667969 L 286.570312 320.191406 L 301.765625 320.324219 C 302.140625 320.324219 302.511719 320.355469 302.882812 320.417969 C 302.945312 320.828125 302.976562 321.242188 302.972656 321.65625 Z M 302.972656 321.65625 " fill-opacity="1" fill-rule="evenodd"/><path fill="#f59880" d="M 174.21875 337.417969 C 174.222656 337.917969 174.175781 338.410156 174.082031 338.902344 C 173.988281 339.390625 173.847656 339.867188 173.660156 340.328125 C 173.472656 340.789062 173.242188 341.226562 172.964844 341.644531 C 172.691406 342.0625 172.382812 342.445312 172.03125 342.800781 C 171.679688 343.15625 171.300781 343.476562 170.886719 343.757812 C 170.476562 344.039062 170.039062 344.277344 169.582031 344.472656 C 169.121094 344.667969 168.648438 344.816406 168.160156 344.917969 C 167.671875 345.019531 167.179688 345.074219 166.679688 345.078125 L 80.167969 345.820312 C 79.75 345.824219 79.335938 345.792969 78.925781 345.734375 C 78.863281 345.363281 78.832031 344.992188 78.832031 344.617188 L 78.683594 327.984375 C 78.683594 327.484375 78.726562 326.992188 78.824219 326.5 C 78.917969 326.011719 79.058594 325.535156 79.246094 325.074219 C 79.433594 324.613281 79.664062 324.171875 79.9375 323.757812 C 80.210938 323.339844 80.523438 322.953125 80.875 322.597656 C 81.222656 322.242188 81.605469 321.925781 82.019531 321.644531 C 82.429688 321.363281 82.867188 321.125 83.324219 320.929688 C 83.785156 320.734375 84.257812 320.585938 84.746094 320.484375 C 85.234375 320.382812 85.726562 320.328125 86.226562 320.324219 L 101.421875 320.191406 L 162.46875 319.667969 L 172.742188 319.578125 C 173.15625 319.578125 173.574219 319.605469 173.984375 319.671875 C 174.046875 320.039062 174.078125 320.410156 174.082031 320.785156 Z M 174.21875 337.417969 " fill-opacity="1" fill-rule="evenodd"/><g clip-path="url(#11883ad35d)"><path fill="#2d0d1b" d="M 188.25 204.605469 C 186.640625 204.597656 185.140625 204.183594 183.75 203.367188 L 114.570312 163.46875 C 113.878906 163.082031 113.253906 162.613281 112.6875 162.058594 C 112.125 161.503906 111.644531 160.882812 111.246094 160.199219 C 110.851562 159.511719 110.554688 158.789062 110.351562 158.023438 C 110.152344 157.257812 110.058594 156.480469 110.070312 155.6875 L 110.070312 75.894531 C 110.058594 75.101562 110.152344 74.324219 110.351562 73.558594 C 110.554688 72.792969 110.851562 72.066406 111.246094 71.382812 C 111.644531 70.699219 112.125 70.078125 112.6875 69.523438 C 113.25 68.964844 113.878906 68.496094 114.570312 68.109375 L 183.75 28.210938 C 184.433594 27.808594 185.15625 27.5 185.917969 27.289062 C 186.683594 27.082031 187.460938 26.976562 188.25 26.976562 C 189.042969 26.976562 189.820312 27.082031 190.585938 27.289062 C 191.347656 27.5 192.070312 27.808594 192.75 28.210938 L 261.933594 68.109375 C 262.625 68.496094 263.253906 68.964844 263.816406 69.523438 C 264.378906 70.078125 264.859375 70.699219 265.253906 71.382812 C 265.652344 72.066406 265.949219 72.792969 266.148438 73.558594 C 266.347656 74.324219 266.445312 75.101562 266.433594 75.894531 L 266.433594 155.6875 C 266.445312 156.476562 266.351562 157.253906 266.148438 158.019531 C 265.949219 158.785156 265.652344 159.511719 265.257812 160.195312 C 264.859375 160.878906 264.378906 161.5 263.816406 162.054688 C 263.253906 162.609375 262.625 163.082031 261.933594 163.46875 L 192.75 203.367188 C 191.363281 204.183594 189.863281 204.597656 188.25 204.605469 Z M 188.25 31.726562 C 187.488281 31.734375 186.78125 31.933594 186.128906 32.320312 L 116.945312 72.214844 C 116.277344 72.582031 115.75 73.097656 115.367188 73.757812 C 114.988281 74.417969 114.804688 75.128906 114.820312 75.894531 L 114.820312 155.6875 C 114.804688 156.449219 114.984375 157.160156 115.367188 157.820312 C 115.75 158.480469 116.277344 158.992188 116.945312 159.359375 L 186.125 199.257812 C 186.78125 199.652344 187.488281 199.851562 188.25 199.851562 C 189.015625 199.851562 189.722656 199.652344 190.375 199.257812 L 259.558594 159.359375 C 260.226562 158.992188 260.753906 158.480469 261.136719 157.820312 C 261.515625 157.160156 261.699219 156.449219 261.683594 155.6875 L 261.683594 75.894531 C 261.699219 75.128906 261.515625 74.417969 261.132812 73.757812 C 260.753906 73.097656 260.226562 72.582031 259.558594 72.214844 L 190.375 32.320312 C 189.722656 31.933594 189.011719 31.734375 188.25 31.726562 Z M 188.25 31.726562 " fill-opacity="1" fill-rule="nonzero"/></g><g clip-path="url(#123869df5d)"><path fill="#2d0d1b" d="M 188.25 118.160156 C 187.828125 118.160156 187.429688 118.054688 187.0625 117.84375 L 112.125 74.625 C 111.851562 74.46875 111.617188 74.265625 111.425781 74.015625 C 111.234375 73.765625 111.097656 73.488281 111.015625 73.183594 C 110.9375 72.878906 110.914062 72.570312 110.957031 72.261719 C 111 71.949219 111.097656 71.65625 111.257812 71.382812 C 112.066406 69.996094 113.167969 68.902344 114.566406 68.109375 L 183.75 28.210938 C 184.433594 27.808594 185.15625 27.5 185.917969 27.289062 C 186.683594 27.082031 187.460938 26.976562 188.25 26.976562 C 189.042969 26.976562 189.820312 27.082031 190.585938 27.289062 C 191.347656 27.5 192.070312 27.808594 192.75 28.210938 L 261.933594 68.109375 C 263.332031 68.90625 264.4375 70 265.25 71.386719 C 265.40625 71.660156 265.503906 71.953125 265.546875 72.265625 C 265.585938 72.578125 265.566406 72.882812 265.484375 73.1875 C 265.402344 73.492188 265.265625 73.765625 265.074219 74.015625 C 264.882812 74.265625 264.652344 74.46875 264.378906 74.625 L 189.4375 117.84375 C 189.070312 118.054688 188.675781 118.160156 188.25 118.160156 Z M 117.195312 72.074219 L 188.25 113.050781 L 259.308594 72.070312 L 190.375 32.320312 C 189.722656 31.925781 189.011719 31.726562 188.25 31.726562 C 187.488281 31.726562 186.777344 31.925781 186.125 32.320312 Z M 117.195312 72.074219 " fill-opacity="1" fill-rule="nonzero"/></g><path fill="#2d0d1b" d="M 188.25 204.59375 C 187.9375 204.59375 187.632812 204.53125 187.34375 204.414062 C 187.050781 204.292969 186.792969 204.121094 186.570312 203.898438 C 186.347656 203.675781 186.179688 203.417969 186.058594 203.128906 C 185.9375 202.839844 185.875 202.535156 185.875 202.222656 L 185.875 115.789062 C 185.875 115.363281 185.980469 114.96875 186.195312 114.601562 C 186.40625 114.234375 186.695312 113.945312 187.0625 113.734375 L 262.003906 70.515625 C 262.277344 70.359375 262.570312 70.257812 262.882812 70.21875 C 263.195312 70.175781 263.503906 70.199219 263.808594 70.28125 C 264.113281 70.359375 264.390625 70.496094 264.640625 70.691406 C 264.886719 70.882812 265.09375 71.113281 265.25 71.386719 C 266.046875 72.78125 266.441406 74.285156 266.433594 75.890625 L 266.433594 155.6875 C 266.445312 156.476562 266.351562 157.253906 266.148438 158.019531 C 265.949219 158.785156 265.652344 159.511719 265.257812 160.195312 C 264.859375 160.878906 264.378906 161.5 263.816406 162.054688 C 263.253906 162.609375 262.625 163.082031 261.933594 163.46875 L 192.75 203.367188 C 191.359375 204.175781 189.859375 204.585938 188.25 204.59375 Z M 190.625 117.15625 L 190.625 199.113281 L 259.558594 159.359375 C 260.226562 158.992188 260.753906 158.480469 261.136719 157.820312 C 261.515625 157.160156 261.699219 156.449219 261.683594 155.6875 L 261.683594 76.179688 Z M 190.625 117.15625 " fill-opacity="1" fill-rule="nonzero"/><path fill="#2d0d1b" d="M 161.339844 102.640625 C 160.917969 102.640625 160.519531 102.535156 160.152344 102.324219 L 138.167969 89.644531 C 137.988281 89.542969 137.824219 89.417969 137.679688 89.269531 C 137.53125 89.121094 137.40625 88.957031 137.300781 88.777344 C 137.195312 88.597656 137.117188 88.40625 137.0625 88.207031 C 137.007812 88.003906 136.980469 87.800781 136.980469 87.589844 C 136.980469 87.382812 137.007812 87.179688 137.0625 86.976562 C 137.117188 86.777344 137.195312 86.585938 137.300781 86.40625 C 137.40625 86.226562 137.53125 86.0625 137.679688 85.914062 C 137.824219 85.765625 137.988281 85.640625 138.167969 85.539062 L 213.972656 41.820312 C 214.339844 41.609375 214.738281 41.503906 215.160156 41.503906 C 215.585938 41.503906 215.980469 41.609375 216.347656 41.820312 L 238.332031 54.5 C 238.699219 54.710938 238.992188 55 239.203125 55.367188 C 239.414062 55.734375 239.519531 56.128906 239.519531 56.550781 C 239.519531 56.976562 239.414062 57.371094 239.203125 57.738281 C 238.992188 58.105469 238.699219 58.394531 238.332031 58.605469 L 162.527344 102.324219 C 162.160156 102.535156 161.765625 102.640625 161.339844 102.640625 Z M 144.105469 87.589844 L 161.339844 97.53125 L 232.394531 56.554688 L 215.160156 46.613281 Z M 144.105469 87.589844 " fill-opacity="1" fill-rule="nonzero"/><path fill="#2d0d1b" d="M 158.03125 134.660156 C 157.015625 134.65625 156.070312 134.402344 155.191406 133.894531 L 141.480469 125.984375 C 140.792969 125.597656 140.164062 125.128906 139.601562 124.570312 C 139.035156 124.015625 138.558594 123.398438 138.160156 122.710938 C 137.765625 122.027344 137.46875 121.300781 137.265625 120.535156 C 137.066406 119.773438 136.972656 118.992188 136.984375 118.203125 L 136.984375 87.59375 C 136.984375 87.167969 137.089844 86.773438 137.300781 86.40625 C 137.511719 86.039062 137.804688 85.75 138.171875 85.539062 C 138.539062 85.324219 138.933594 85.21875 139.359375 85.21875 C 139.78125 85.21875 140.179688 85.324219 140.546875 85.539062 L 162.527344 98.214844 C 162.894531 98.425781 163.183594 98.714844 163.398438 99.082031 C 163.609375 99.449219 163.714844 99.847656 163.714844 100.269531 L 163.714844 128.96875 C 163.714844 129.34375 163.675781 129.710938 163.601562 130.078125 C 163.53125 130.441406 163.421875 130.796875 163.277344 131.140625 C 163.136719 131.488281 162.960938 131.8125 162.753906 132.125 C 162.546875 132.433594 162.308594 132.722656 162.046875 132.984375 C 161.78125 133.25 161.496094 133.484375 161.1875 133.691406 C 160.875 133.902344 160.550781 134.078125 160.203125 134.21875 C 159.859375 134.363281 159.503906 134.472656 159.140625 134.546875 C 158.773438 134.621094 158.402344 134.660156 158.03125 134.664062 Z M 141.734375 91.699219 L 141.734375 118.203125 C 141.71875 118.964844 141.898438 119.675781 142.28125 120.335938 C 142.664062 120.996094 143.1875 121.507812 143.855469 121.875 L 157.558594 129.78125 C 157.707031 129.863281 157.863281 129.90625 158.027344 129.90625 C 158.195312 129.902344 158.351562 129.863281 158.496094 129.777344 C 158.640625 129.695312 158.753906 129.578125 158.839844 129.433594 C 158.921875 129.289062 158.964844 129.132812 158.964844 128.96875 L 158.964844 101.636719 Z M 141.734375 91.699219 " fill-opacity="1" fill-rule="nonzero"/><path fill="#2d0d1b" d="M 280.207031 316.371094 L 280.1875 316.371094 L 219.140625 315.84375 C 218.824219 315.839844 218.523438 315.78125 218.238281 315.65625 C 217.949219 315.535156 217.695312 315.367188 217.472656 315.144531 C 217.253906 314.921875 217.082031 314.667969 216.964844 314.378906 C 216.84375 314.089844 216.785156 313.789062 216.785156 313.476562 L 216.710938 264.492188 C 216.691406 253.496094 217.980469 241.078125 227.671875 232.351562 C 230.207031 230.070312 233.332031 227.441406 236.636719 224.660156 C 246.277344 216.542969 258.277344 206.441406 268.144531 194.789062 C 268.214844 194.707031 268.285156 194.632812 268.367188 194.558594 C 275.394531 188.234375 285.898438 188.269531 292.28125 194.644531 C 295.09375 197.453125 296.71875 200.722656 297.160156 204.167969 C 298.402344 201.902344 299.335938 199.519531 299.960938 197.015625 C 300.589844 194.511719 300.890625 191.964844 300.863281 189.386719 L 300.636719 129.667969 C 300.558594 108.914062 307.140625 100.621094 312.675781 97.3125 C 317.808594 94.25 324.296875 94.277344 330.03125 97.390625 C 335.78125 100.507812 339.601562 106.125 339.761719 111.699219 L 342.878906 221.621094 C 343.179688 232.328125 339.410156 241.675781 331.667969 249.410156 L 282.582031 298.433594 L 282.582031 313.992188 C 282.582031 314.308594 282.519531 314.609375 282.402344 314.902344 C 282.28125 315.191406 282.109375 315.449219 281.886719 315.671875 C 281.664062 315.894531 281.40625 316.0625 281.117188 316.183594 C 280.824219 316.304688 280.523438 316.363281 280.207031 316.363281 Z M 221.53125 311.117188 L 277.832031 311.601562 L 277.832031 297.453125 C 277.832031 296.796875 278.066406 296.238281 278.53125 295.773438 L 328.308594 246.054688 C 335.09375 239.28125 338.398438 231.105469 338.132812 221.757812 L 335.015625 111.835938 C 334.902344 107.917969 332.058594 103.886719 327.765625 101.558594 C 323.457031 99.222656 318.847656 99.160156 315.113281 101.386719 C 308.789062 105.164062 305.332031 115.199219 305.390625 129.652344 L 305.617188 189.367188 C 305.644531 198.003906 302.84375 205.664062 297.046875 212.792969 L 292.453125 218.441406 C 292.253906 218.6875 292.015625 218.882812 291.738281 219.03125 C 291.464844 219.183594 291.167969 219.273438 290.855469 219.308594 C 290.542969 219.339844 290.234375 219.3125 289.933594 219.222656 C 289.632812 219.132812 289.359375 218.988281 289.113281 218.792969 C 288.871094 218.59375 288.671875 218.359375 288.523438 218.082031 C 288.371094 217.808594 288.28125 217.511719 288.246094 217.199219 C 288.210938 216.886719 288.242188 216.582031 288.328125 216.28125 C 288.417969 215.980469 288.558594 215.707031 288.757812 215.460938 C 293.753906 209.25 293.816406 202.886719 288.925781 198 C 284.289062 193.367188 276.894531 193.371094 271.664062 197.980469 C 261.558594 209.886719 249.441406 220.085938 239.699219 228.285156 C 236.28125 231.164062 233.332031 233.648438 230.855469 235.875 C 222.570312 243.332031 221.445312 254.03125 221.464844 264.484375 Z M 221.53125 311.117188 " fill-opacity="1" fill-rule="nonzero"/><g clip-path="url(#52678c983f)"><path fill="#2d0d1b" d="M 295.199219 348.324219 L 295.105469 348.324219 L 208.59375 347.582031 C 208.097656 347.578125 207.601562 347.535156 207.109375 347.457031 C 206.527344 347.359375 205.957031 347.214844 205.398438 347.019531 C 204.839844 346.820312 204.300781 346.578125 203.789062 346.285156 C 203.273438 345.996094 202.789062 345.660156 202.332031 345.285156 C 201.875 344.90625 201.457031 344.492188 201.074219 344.039062 C 200.691406 343.589844 200.351562 343.109375 200.054688 342.597656 C 199.757812 342.085938 199.507812 341.554688 199.304688 340.996094 C 199.101562 340.441406 198.949219 339.875 198.847656 339.292969 C 198.746094 338.707031 198.695312 338.121094 198.699219 337.53125 L 198.839844 320.894531 C 198.847656 320.242188 198.917969 319.59375 199.050781 318.953125 C 199.1875 318.3125 199.382812 317.691406 199.640625 317.089844 C 199.894531 316.488281 200.207031 315.917969 200.578125 315.375 C 200.945312 314.835938 201.363281 314.335938 201.832031 313.878906 C 202.300781 313.417969 202.804688 313.011719 203.355469 312.652344 C 203.902344 312.292969 204.480469 311.988281 205.085938 311.742188 C 205.691406 311.496094 206.320312 311.3125 206.960938 311.191406 C 207.605469 311.066406 208.253906 311.007812 208.910156 311.011719 L 295.421875 311.753906 C 296.078125 311.761719 296.726562 311.832031 297.367188 311.964844 C 298.007812 312.097656 298.628906 312.292969 299.234375 312.546875 C 299.835938 312.804688 300.410156 313.113281 300.949219 313.484375 C 301.492188 313.851562 301.992188 314.269531 302.453125 314.734375 C 302.910156 315.203125 303.320312 315.707031 303.679688 316.253906 C 304.039062 316.800781 304.34375 317.378906 304.589844 317.984375 C 304.835938 318.59375 305.019531 319.214844 305.140625 319.859375 C 305.265625 320.503906 305.324219 321.152344 305.320312 321.804688 L 305.320312 321.808594 L 305.171875 338.441406 C 305.164062 339.09375 305.097656 339.734375 304.960938 340.371094 C 304.828125 341.007812 304.636719 341.625 304.382812 342.226562 C 304.128906 342.824219 303.820312 343.394531 303.457031 343.929688 C 303.089844 344.46875 302.675781 344.96875 302.214844 345.425781 C 301.753906 345.882812 301.25 346.292969 300.707031 346.652344 C 300.167969 347.011719 299.59375 347.316406 298.992188 347.566406 C 298.390625 347.8125 297.769531 348.003906 297.132812 348.128906 C 296.496094 348.257812 295.851562 348.320312 295.199219 348.324219 Z M 208.820312 315.753906 C 208.476562 315.757812 208.140625 315.792969 207.804688 315.859375 C 207.472656 315.925781 207.144531 316.023438 206.832031 316.15625 C 206.515625 316.285156 206.214844 316.445312 205.933594 316.632812 C 205.648438 316.824219 205.386719 317.039062 205.144531 317.277344 C 204.902344 317.515625 204.683594 317.777344 204.492188 318.058594 C 204.300781 318.34375 204.140625 318.640625 204.007812 318.953125 C 203.875 319.265625 203.773438 319.589844 203.703125 319.925781 C 203.632812 320.257812 203.59375 320.59375 203.589844 320.9375 L 203.445312 337.570312 C 203.445312 338.195312 203.550781 338.804688 203.765625 339.390625 C 203.984375 339.976562 204.292969 340.507812 204.699219 340.984375 C 205.101562 341.460938 205.578125 341.855469 206.121094 342.164062 C 206.667969 342.46875 207.25 342.671875 207.867188 342.773438 C 208.121094 342.816406 208.375 342.835938 208.632812 342.839844 L 295.148438 343.578125 L 295.195312 343.578125 C 295.539062 343.578125 295.875 343.542969 296.210938 343.476562 C 296.542969 343.410156 296.867188 343.308594 297.183594 343.179688 C 297.496094 343.046875 297.796875 342.886719 298.082031 342.699219 C 298.363281 342.511719 298.628906 342.296875 298.867188 342.054688 C 299.109375 341.816406 299.328125 341.554688 299.519531 341.273438 C 299.710938 340.992188 299.871094 340.695312 300.003906 340.378906 C 300.136719 340.066406 300.238281 339.742188 300.308594 339.410156 C 300.378906 339.078125 300.417969 338.738281 300.421875 338.398438 L 300.566406 321.769531 C 300.570312 321.484375 300.546875 321.203125 300.503906 320.917969 C 300.402344 320.308594 300.199219 319.734375 299.898438 319.195312 C 299.597656 318.65625 299.210938 318.1875 298.742188 317.78125 C 298.273438 317.378906 297.75 317.066406 297.171875 316.847656 C 296.59375 316.625 295.996094 316.511719 295.378906 316.5 L 208.863281 315.757812 Z M 302.945312 321.785156 Z M 302.945312 321.785156 " fill-opacity="1" fill-rule="nonzero"/></g><path fill="#2d0d1b" d="M 95.058594 316.371094 C 94.742188 316.367188 94.4375 316.308594 94.148438 316.1875 C 93.855469 316.066406 93.601562 315.898438 93.378906 315.675781 C 93.15625 315.453125 92.984375 315.195312 92.863281 314.90625 C 92.742188 314.613281 92.683594 314.3125 92.683594 313.996094 L 92.683594 298.4375 L 43.601562 249.414062 C 35.859375 241.679688 32.085938 232.332031 32.386719 221.625 L 35.503906 111.703125 C 35.683594 105.394531 40.578125 99.089844 47.414062 96.371094 C 52.964844 94.164062 58.800781 94.703125 63.429688 97.851562 C 68.582031 101.355469 74.703125 109.722656 74.628906 129.671875 L 74.398438 189.386719 C 74.375 191.96875 74.671875 194.511719 75.300781 197.015625 C 75.929688 199.523438 76.863281 201.90625 78.105469 204.171875 C 78.542969 200.722656 80.171875 197.457031 82.984375 194.648438 C 89.367188 188.269531 99.871094 188.234375 106.898438 194.5625 C 106.976562 194.632812 107.050781 194.710938 107.121094 194.792969 C 116.988281 206.445312 128.988281 216.546875 138.625 224.660156 C 141.933594 227.445312 145.058594 230.074219 147.589844 232.355469 C 157.28125 241.078125 158.570312 253.496094 158.554688 264.492188 L 158.480469 313.476562 C 158.480469 313.789062 158.417969 314.089844 158.300781 314.378906 C 158.179688 314.667969 158.011719 314.921875 157.789062 315.144531 C 157.570312 315.367188 157.316406 315.539062 157.027344 315.660156 C 156.738281 315.78125 156.4375 315.84375 156.125 315.847656 L 95.078125 316.371094 Z M 54.265625 99.765625 C 52.503906 99.78125 50.804688 100.117188 49.167969 100.777344 C 44.042969 102.8125 40.375 107.363281 40.25 111.835938 L 37.132812 221.757812 C 36.867188 231.105469 40.171875 239.28125 46.957031 246.054688 L 96.734375 295.773438 C 97.199219 296.238281 97.429688 296.796875 97.429688 297.449219 L 97.429688 311.601562 L 153.734375 311.117188 L 153.804688 264.480469 C 153.820312 254.03125 152.691406 243.332031 144.410156 235.875 C 141.933594 233.644531 138.984375 231.164062 135.566406 228.285156 C 125.824219 220.082031 113.707031 209.882812 103.601562 197.980469 C 98.453125 193.445312 90.902344 193.441406 86.339844 197.996094 C 81.449219 202.882812 81.511719 209.246094 86.511719 215.457031 C 86.710938 215.703125 86.851562 215.976562 86.941406 216.277344 C 87.03125 216.578125 87.058594 216.886719 87.027344 217.199219 C 86.992188 217.511719 86.902344 217.808594 86.75 218.082031 C 86.601562 218.359375 86.402344 218.597656 86.15625 218.792969 C 85.914062 218.992188 85.640625 219.136719 85.335938 219.226562 C 85.035156 219.3125 84.726562 219.339844 84.414062 219.308594 C 84.101562 219.277344 83.804688 219.183594 83.53125 219.035156 C 83.253906 218.882812 83.015625 218.6875 82.816406 218.441406 L 78.222656 212.792969 C 72.421875 205.660156 69.617188 198 69.648438 189.367188 L 69.875 129.648438 C 69.929688 115.710938 66.691406 105.808594 60.753906 101.769531 C 58.800781 100.421875 56.640625 99.753906 54.265625 99.765625 Z M 54.265625 99.765625 " fill-opacity="1" fill-rule="nonzero"/><g clip-path="url(#a7646eb2d9)"><path fill="#2d0d1b" d="M 80.082031 348.324219 C 79.566406 348.324219 79.054688 348.285156 78.546875 348.207031 C 77.964844 348.121094 77.398438 347.980469 76.839844 347.792969 C 76.285156 347.601562 75.75 347.367188 75.234375 347.082031 C 74.71875 346.796875 74.234375 346.472656 73.777344 346.101562 C 73.320312 345.730469 72.902344 345.324219 72.515625 344.882812 C 72.132812 344.4375 71.789062 343.960938 71.488281 343.457031 C 71.191406 342.953125 70.9375 342.425781 70.730469 341.875 C 70.523438 341.328125 70.367188 340.765625 70.257812 340.1875 C 70.152344 339.609375 70.097656 339.027344 70.09375 338.441406 L 69.945312 321.808594 C 69.941406 321.152344 70 320.503906 70.125 319.863281 C 70.246094 319.21875 70.429688 318.59375 70.675781 317.988281 C 70.921875 317.382812 71.226562 316.804688 71.585938 316.257812 C 71.945312 315.710938 72.355469 315.203125 72.8125 314.738281 C 73.273438 314.269531 73.773438 313.851562 74.316406 313.484375 C 74.855469 313.117188 75.429688 312.804688 76.03125 312.546875 C 76.636719 312.292969 77.257812 312.097656 77.898438 311.964844 C 78.539062 311.832031 79.1875 311.761719 79.84375 311.753906 L 166.355469 311.011719 L 166.445312 311.011719 C 167.035156 311.015625 167.621094 311.070312 168.199219 311.175781 C 168.777344 311.28125 169.34375 311.4375 169.894531 311.640625 C 170.449219 311.847656 170.976562 312.097656 171.484375 312.398438 C 171.992188 312.695312 172.46875 313.035156 172.917969 313.417969 C 173.363281 313.800781 173.777344 314.21875 174.148438 314.675781 C 174.523438 315.128906 174.855469 315.613281 175.144531 316.125 C 175.429688 316.636719 175.671875 317.171875 175.867188 317.726562 C 176.0625 318.28125 176.207031 318.851562 176.300781 319.429688 C 176.378906 319.917969 176.421875 320.402344 176.425781 320.894531 L 176.5625 337.53125 C 176.566406 338.183594 176.507812 338.832031 176.382812 339.476562 C 176.261719 340.117188 176.078125 340.742188 175.832031 341.347656 C 175.585938 341.953125 175.28125 342.53125 174.921875 343.078125 C 174.5625 343.625 174.152344 344.128906 173.695312 344.597656 C 173.234375 345.0625 172.734375 345.480469 172.195312 345.847656 C 171.652344 346.21875 171.082031 346.53125 170.480469 346.785156 C 169.875 347.042969 169.253906 347.238281 168.613281 347.371094 C 167.972656 347.503906 167.324219 347.574219 166.671875 347.582031 L 80.15625 348.324219 Z M 166.445312 315.753906 L 166.398438 315.753906 L 79.882812 316.5 C 79.542969 316.503906 79.203125 316.539062 78.867188 316.609375 C 78.53125 316.683594 78.203125 316.785156 77.890625 316.917969 C 77.574219 317.054688 77.273438 317.21875 76.992188 317.410156 C 76.707031 317.601562 76.445312 317.820312 76.203125 318.066406 C 75.964844 318.308594 75.75 318.574219 75.5625 318.863281 C 75.371094 319.148438 75.214844 319.449219 75.085938 319.769531 C 74.953125 320.085938 74.859375 320.410156 74.792969 320.75 C 74.726562 321.085938 74.695312 321.425781 74.695312 321.765625 L 74.84375 338.398438 C 74.851562 339.015625 74.96875 339.613281 75.1875 340.191406 C 75.40625 340.769531 75.71875 341.292969 76.125 341.757812 C 76.527344 342.226562 77 342.613281 77.539062 342.914062 C 78.078125 343.21875 78.65625 343.417969 79.265625 343.519531 C 79.546875 343.5625 79.832031 343.582031 80.121094 343.578125 L 166.628906 342.839844 C 166.972656 342.835938 167.3125 342.796875 167.648438 342.726562 C 167.984375 342.65625 168.308594 342.550781 168.625 342.417969 C 168.941406 342.285156 169.238281 342.121094 169.523438 341.925781 C 169.804688 341.734375 170.066406 341.515625 170.308594 341.269531 C 170.546875 341.027344 170.761719 340.761719 170.949219 340.476562 C 171.140625 340.1875 171.296875 339.886719 171.425781 339.570312 C 171.558594 339.253906 171.652344 338.925781 171.71875 338.589844 C 171.785156 338.253906 171.816406 337.914062 171.816406 337.570312 L 171.675781 320.933594 C 171.675781 320.683594 171.652344 320.433594 171.613281 320.1875 C 171.515625 319.570312 171.3125 318.992188 171.007812 318.449219 C 170.703125 317.90625 170.316406 317.429688 169.84375 317.023438 C 169.371094 316.621094 168.84375 316.308594 168.257812 316.089844 C 167.675781 315.871094 167.070312 315.757812 166.445312 315.753906 Z M 166.445312 315.753906 " fill-opacity="1" fill-rule="nonzero"/></g><g clip-path="url(#2b3dfed1a0)"><g clip-path="url(#5d95a81ead)"><g clip-path="url(#f9a2086b2e)"><g transform="matrix(1, 0, 0, 1, 77, 0)"><g clip-path="url(#978fc48a9c)"><g clip-path="url(#a82befb80b)"><g clip-path="url(#23461ae0b9)"><g clip-path="url(#788dc42fae)"><path fill="#f9b900" d="M 87.894531 -26.425781 L 241.460938 78.445312 L 130.855469 240.410156 L -22.710938 135.535156 Z M 87.894531 -26.425781 " fill-opacity="1" fill-rule="nonzero"/></g></g></g></g></g></g></g></g><g clip-path="url(#f06049f9e2)"><path fill="#ffffff" d="M 187.773438 140.277344 L 187.773438 155.957031 C 187.773438 156.402344 187.996094 156.785156 188.378906 157.003906 L 200.652344 164.09375 C 201.460938 164.558594 202.464844 163.980469 202.464844 163.046875 L 202.464844 142.105469 L 253.125 112.855469 L 269.097656 122.074219 C 270.378906 122.816406 271.109375 124.085938 271.109375 125.5625 L 271.109375 179.410156 C 271.109375 180.890625 270.378906 182.160156 269.097656 182.898438 L 222.464844 209.820312 C 221.183594 210.5625 219.71875 210.5625 218.433594 209.820312 L 171.804688 182.898438 C 170.523438 182.160156 169.789062 180.890625 169.789062 179.410156 L 169.789062 130.683594 L 184.179688 138.988281 C 185.316406 139.648438 186.535156 140.074219 187.773438 140.277344 Z M 191.429688 18.738281 C 190.148438 17.996094 188.683594 17.996094 187.402344 18.738281 L 140.769531 45.660156 C 139.488281 46.398438 138.757812 47.671875 138.757812 49.148438 L 138.757812 102.996094 C 138.757812 104.472656 139.488281 105.746094 140.769531 106.484375 L 187.402344 133.40625 C 188.683594 134.144531 190.148438 134.144531 191.429688 133.40625 L 238.0625 106.484375 C 239.34375 105.746094 240.078125 104.472656 240.078125 102.996094 L 240.078125 49.148438 C 240.078125 47.671875 239.34375 46.398438 238.0625 45.660156 L 222.09375 36.441406 L 171.433594 65.6875 L 171.433594 86.628906 C 171.433594 87.5625 170.425781 88.144531 169.617188 87.675781 L 157.34375 80.589844 C 156.960938 80.367188 156.742188 79.988281 156.742188 79.542969 L 156.742188 57.207031 L 207.402344 27.957031 Z M 132.308594 87.019531 L 119.683594 94.308594 L 119.683594 116.648438 C 119.683594 117.089844 119.902344 117.472656 120.289062 117.695312 L 132.5625 124.78125 C 133.371094 125.246094 134.375 124.667969 134.375 123.734375 L 134.375 109.265625 C 135.210938 110.378906 136.28125 111.335938 137.546875 112.066406 L 163.34375 126.960938 L 163.34375 165.332031 L 154.375 170.507812 C 153.09375 171.25 151.625 171.25 150.34375 170.507812 L 103.714844 143.585938 C 102.433594 142.847656 101.699219 141.578125 101.699219 140.097656 L 101.699219 86.253906 C 101.699219 84.773438 102.433594 83.503906 103.714844 82.761719 L 132.308594 66.253906 Z M 132.308594 87.019531 " fill-opacity="1" fill-rule="evenodd"/></g></svg>